<svg xmlns="http://www.w3.org/2000/svg" xmlns:xlink="http://www.w3.org/1999/xlink" width="416" height="349" viewBox="0 0 416 349"><defs><clipPath id="clip-path"><rect id="Rect&#xE1;ngulo_21531" data-name="Rect&#xE1;ngulo 21531" width="416" height="349" transform="translate(842 679)" fill="#fff" stroke="#707070" stroke-width="1"></rect></clipPath><linearGradient id="linear-gradient" x1="-3.59" y1="-7.709" x2="-3.59" y2="-7.704" gradientUnits="objectBoundingBox"><stop offset="0" stop-color="#eaeaeb"></stop><stop offset="0.506" stop-color="#aaaaae"></stop><stop offset="0.663" stop-color="#c6c6c8"></stop><stop offset="1" stop-color="#fff"></stop></linearGradient><linearGradient id="linear-gradient-2" x1="-43.636" y1="-65.069" x2="-43.636" y2="-65.079" gradientUnits="objectBoundingBox"><stop offset="0.28" stop-color="#1eeb00"></stop><stop offset="0.51" stop-color="#1ee700"></stop><stop offset="0.73" stop-color="#1edb00"></stop><stop offset="0.95" stop-color="#1ec800"></stop><stop offset="1" stop-color="#1ec200"></stop></linearGradient></defs><g id="Marketplace_y_coahorro" data-name="Marketplace y coahorro" transform="translate(-842 -679)" clip-path="url(#clip-path)"><path id="blob2" d="M1.422,123.258c-11.439,62.324,48.163,122.489,106.561,160.13s114.99,52.451,156.831,26.226c41.842-26.534,68.331-94.1,51.474-163.832C299.431,75.743,239.227,3.855,167.585.152S13.161,60.934,1.422,123.258Z" transform="matrix(0.087, 0.996, -0.996, 0.087, 1150.088, 679.324)" fill="none" stroke="#54c86a" stroke-width="3"></path><path id="blob2-2" data-name="blob2" d="M354.339,133.153C367,200.481,301.009,265.475,236.347,306.138S109.023,362.8,62.692,334.469c-46.33-28.664-75.661-101.658-57-176.985C24.362,81.824,91.024,4.164,170.352.164S341.34,65.825,354.339,133.153Z" transform="matrix(-0.998, -0.07, 0.07, -0.998, 1242.955, 1037.874)" fill="#75d286"></path><g id="Grupo_29962" data-name="Grupo 29962" transform="translate(-65.77 -21.41)"><g id="Grupo_24693" data-name="Grupo 24693" transform="translate(922.445 778.593)"><ellipse id="Elipse_4265" data-name="Elipse 4265" cx="75.171" cy="4.86" rx="75.171" ry="4.86" transform="translate(62.352 207.005)" fill="#9dbfa8" opacity="0.56" style="isolation: isolate"></ellipse><g id="Grupo_24684" data-name="Grupo 24684"><g id="Grupo_24692" data-name="Grupo 24692"><path id="Trazado_33223" data-name="Trazado 33223" d="M1157.9,441.144h66.572l5.745,31.484h-78.354Z" transform="translate(-1052.096 -265.416)" fill="#f7f7f7"></path><path id="Trazado_33358" data-name="Trazado 33358" d="M1238.9,476.933l-9.513-1.7h-78.352l-9.512,1.7a.614.614,0,0,0-.506.6v1.9a.449.449,0,0,0,.449.449h97.494a.449.449,0,0,0,.449-.449h0v-1.9A.614.614,0,0,0,1238.9,476.933Z" transform="translate(-1051.267 -268.022)" fill="#f6f4f4"></path><g id="Grupo_24686" data-name="Grupo 24686" transform="translate(89.75 207.214)"><path id="Trazado_33359" data-name="Trazado 33359" d="M1236.711,476.5l-7.078-1.264h-78.355L1144.2,476.5Z" transform="translate(-1141.26 -475.236)" fill="#c8c8c8"></path><path id="Trazado_33368" data-name="Trazado 33368" d="M1149.765,475.519c-.045.008-1.932.379-1.932.425l-4.126,1.032a3,3,0,0,0,.615.069s92.739,0,92.808-.069L1233,475.944c0-.046-1.887-.416-1.932-.425l-.726-.024S1149.9,475.5,1149.765,475.519Z" transform="translate(-1141.223 -475.256)" fill="#c6c5c5"></path><path id="Trazado_33369" data-name="Trazado 33369" d="M1149.6,475.551c-.051.009-1.9.378-1.9.429l-4.042,1.049a2.624,2.624,0,0,0,.611.078s92.835,0,92.913-.078l-4.042-1.049c0-.051-1.853-.419-1.9-.429l-.729-.027S1149.746,475.524,1149.6,475.551Z" transform="translate(-1141.218 -475.258)" fill="#c7c6c6"></path><path id="Trazado_33370" data-name="Trazado 33370" d="M1149.428,475.582c-.055.01-1.874.376-1.874.432l-3.958,1.071a2.377,2.377,0,0,0,.609.085s92.932,0,93.017-.085l-3.957-1.067c0-.056-1.819-.422-1.874-.432l-.732-.03S1149.594,475.552,1149.428,475.582Z" transform="translate(-1141.214 -475.261)" fill="#c8c7c7"></path><path id="Trazado_33371" data-name="Trazado 33371" d="M1149.26,475.614a18.872,18.872,0,0,0-1.847.436l-3.871,1.084c0,.052.554.092.6.092,0,0,93.029,0,93.122-.092l-3.873-1.084a18.949,18.949,0,0,0-1.847-.436l-.739-.032S1149.441,475.582,1149.26,475.614Z" transform="translate(-1141.21 -475.263)" fill="none"></path><path id="Trazado_33372" data-name="Trazado 33372" d="M1149.092,475.645a16.771,16.771,0,0,0-1.816.44l-3.786,1.1c0,.055.546.1.6.1,0,0,93.127,0,93.228-.1l-3.786-1.1a16.839,16.839,0,0,0-1.816-.44l-.739-.035S1149.288,475.612,1149.092,475.645Z" transform="translate(-1141.206 -475.265)" fill="none"></path><path id="Trazado_33373" data-name="Trazado 33373" d="M1148.924,475.677a15.217,15.217,0,0,0-1.787.443l-3.705,1.12c0,.06.538.108.6.108,0,0,93.223,0,93.332-.108l-3.705-1.12a15.262,15.262,0,0,0-1.787-.443l-.739-.038S1149.135,475.639,1148.924,475.677Z" transform="translate(-1141.202 -475.267)" fill="#cbcaca"></path><path id="Trazado_33374" data-name="Trazado 33374" d="M1148.756,475.709a13.637,13.637,0,0,0-1.755.447l-3.621,1.138c0,.064.53.116.595.116,0,0,93.321,0,93.436-.116l-3.621-1.138a13.68,13.68,0,0,0-1.755-.447l-.745-.041S1148.981,475.668,1148.756,475.709Z" transform="translate(-1141.198 -475.269)" fill="#cccaca"></path><path id="Trazado_33375" data-name="Trazado 33375" d="M1148.587,475.74a12.515,12.515,0,0,0-1.729.451l-3.537,1.155c0,.068.523.124.591.124,0,0,93.418,0,93.542-.124l-3.537-1.155a12.543,12.543,0,0,0-1.728-.451l-.747-.043S1148.828,475.7,1148.587,475.74Z" transform="translate(-1141.193 -475.271)" fill="#cdcbcb"></path><path id="Trazado_33376" data-name="Trazado 33376" d="M1148.418,475.771a11.248,11.248,0,0,0-1.7.454l-3.452,1.174c0,.073.515.131.588.131,0,0,93.515,0,93.647-.131l-3.452-1.174a11.276,11.276,0,0,0-1.7-.454l-.75-.045S1148.675,475.726,1148.418,475.771Z" transform="translate(-1141.189 -475.273)" fill="#cecccc"></path><path id="Trazado_33377" data-name="Trazado 33377" d="M1148.25,475.8a10.326,10.326,0,0,0-1.67.462l-3.368,1.191c0,.077.508.139.585.139,0,0,93.612,0,93.751-.139l-3.368-1.191a10.27,10.27,0,0,0-1.671-.462l-.753-.048S1148.521,475.755,1148.25,475.8Z" transform="translate(-1141.185 -475.276)" fill="#cfcdcd"></path><path id="Trazado_33378" data-name="Trazado 33378" d="M1148.082,475.834a9.439,9.439,0,0,0-1.641.462l-3.284,1.209c0,.081.5.147.581.147,0,0,93.709,0,93.856-.147l-3.284-1.209a9.455,9.455,0,0,0-1.641-.462l-.755-.051S1148.369,475.783,1148.082,475.834Z" transform="translate(-1141.181 -475.278)" fill="#d0cece"></path><path id="Trazado_33379" data-name="Trazado 33379" d="M1147.915,475.866a8.563,8.563,0,0,0-1.611.462l-3.2,1.226c0,.085.492.154.577.154,0,0,93.806,0,93.961-.154l-3.2-1.226a8.591,8.591,0,0,0-1.612-.462l-.759-.054S1148.216,475.812,1147.915,475.866Z" transform="translate(-1141.177 -475.28)" fill="#d1cfcf"></path><path id="Trazado_33380" data-name="Trazado 33380" d="M1147.747,475.9a7.875,7.875,0,0,0-1.583.469l-3.116,1.244c0,.092.485.163.575.163,0,0,93.9,0,94.065-.163l-3.116-1.244a7.9,7.9,0,0,0-1.583-.469l-.762-.056S1148.063,475.841,1147.747,475.9Z" transform="translate(-1141.172 -475.282)" fill="#d2d0d0"></path><path id="Trazado_33381" data-name="Trazado 33381" d="M1147.578,475.929a7.233,7.233,0,0,0-1.553.473l-3.031,1.262c0,.092.476.17.571.17,0,0,94,0,94.169-.17L1234.7,476.4a7.249,7.249,0,0,0-1.553-.473l-.766-.059S1147.909,475.87,1147.578,475.929Z" transform="translate(-1141.168 -475.285)" fill="#d3d1d1"></path><path id="Trazado_33382" data-name="Trazado 33382" d="M1147.41,475.96a6.671,6.671,0,0,0-1.525.477l-2.947,1.279c0,.1.469.177.567.177,0,0,94.1,0,94.275-.177l-2.947-1.279a6.692,6.692,0,0,0-1.525-.477l-.767-.062S1147.755,475.9,1147.41,475.96Z" transform="translate(-1141.164 -475.287)" fill="#d4d2d2"></path><path id="Trazado_33383" data-name="Trazado 33383" d="M1147.242,475.992a6.159,6.159,0,0,0-1.5.48l-2.863,1.293c0,.1.462.185.564.185,0,0,94.194,0,94.379-.185l-2.863-1.293a6.183,6.183,0,0,0-1.5-.48l-.771-.065S1147.6,475.927,1147.242,475.992Z" transform="translate(-1141.16 -475.289)" fill="#d5d3d3"></path><path id="Trazado_33384" data-name="Trazado 33384" d="M1147.074,476.023a5.657,5.657,0,0,0-1.466.483l-2.779,1.315c0,.106.453.193.561.193,0,0,94.293,0,94.484-.193l-2.779-1.315a5.67,5.67,0,0,0-1.467-.483l-.774-.067S1147.45,475.956,1147.074,476.023Z" transform="translate(-1141.156 -475.291)" fill="#d6d4d4"></path><path id="Trazado_33385" data-name="Trazado 33385" d="M1146.9,476.053c-.131.024-1.438.354-1.438.487l-2.695,1.333c0,.111.446.2.554.2,0,0,94.386,0,94.589-.2l-2.695-1.333c0-.133-1.306-.462-1.437-.487l-.778-.069S1147.3,475.985,1146.9,476.053Z" transform="translate(-1141.151 -475.293)" fill="#d7d5d5"></path><path id="Trazado_33386" data-name="Trazado 33386" d="M1146.736,476.086c-.137.025-1.408.353-1.408.49l-2.611,1.35c0,.115.439.209.554.209,0,0,94.485,0,94.694-.209l-2.611-1.35c0-.138-1.272-.462-1.408-.49l-.781-.072S1147.144,476.014,1146.736,476.086Z" transform="translate(-1141.147 -475.296)" fill="#d8d6d6"></path><path id="Trazado_33387" data-name="Trazado 33387" d="M1146.569,476.117c-.141.025-1.379.351-1.379.494l-2.526,1.368c0,.12.431.217.554.217,0,0,94.582,0,94.8-.217l-2.526-1.368c0-.144-1.237-.469-1.379-.494l-.783-.075S1146.99,476.042,1146.569,476.117Z" transform="translate(-1141.143 -475.298)" fill="#d9d7d7"></path><path id="Trazado_33388" data-name="Trazado 33388" d="M1146.4,476.149c-.147.026-1.35.349-1.35.5l-2.442,1.385c0,.124.424.224.548.224,0,0,94.678,0,94.9-.224l-2.442-1.385c0-.149-1.2-.472-1.35-.5l-.786-.078S1146.837,476.071,1146.4,476.149Z" transform="translate(-1141.139 -475.3)" fill="#dad8d8"></path><path id="Trazado_33389" data-name="Trazado 33389" d="M1146.233,476.18c-.151.027-1.321.348-1.321.5l-2.358,1.4c0,.127.416.232.544.232,0,0,94.776,0,95.008-.232l-2.358-1.4c0-.154-1.17-.475-1.321-.5l-.789-.08S1146.682,476.1,1146.233,476.18Z" transform="translate(-1141.135 -475.302)" fill="#dad9d9"></path><path id="Trazado_33390" data-name="Trazado 33390" d="M1146.065,476.212c-.156.028-1.293.346-1.293.505l-2.274,1.421c0,.132.408.24.54.24,0,0,94.873,0,95.113-.24l-2.274-1.421c0-.159-1.135-.477-1.293-.505l-.792-.083S1146.531,476.129,1146.065,476.212Z" transform="translate(-1141.13 -475.304)" fill="#dbdada"></path><path id="Trazado_33391" data-name="Trazado 33391" d="M1145.9,476.244c-.162.029-1.263.344-1.263.509l-2.19,1.439c0,.137.4.247.537.247,0,0,94.97,0,95.217-.247l-2.19-1.439c0-.164-1.1-.48-1.263-.509l-.8-.086S1146.377,476.158,1145.9,476.244Z" transform="translate(-1141.126 -475.307)" fill="#dcdbdb"></path><path id="Trazado_33392" data-name="Trazado 33392" d="M1145.728,476.275c-.166.03-1.234.344-1.234.513l-2.1,1.456c0,.141.393.255.534.255,0,0,95.067,0,95.322-.255l-2.1-1.456c0-.169-1.067-.483-1.234-.513l-.8-.092S1146.225,476.187,1145.728,476.275Z" transform="translate(-1141.122 -475.308)" fill="#dddcdc"></path><path id="Trazado_33393" data-name="Trazado 33393" d="M1145.56,476.306c-.172.03-1.2.342-1.2.516l-2.021,1.478c0,.145.385.263.53.263,0,0,95.164,0,95.427-.263l-2.021-1.478c0-.175-1.033-.486-1.2-.516l-.8-.092S1146.071,476.215,1145.56,476.306Z" transform="translate(-1141.118 -475.311)" fill="#dedddd"></path><path id="Trazado_33394" data-name="Trazado 33394" d="M1145.391,476.338c-.177.031-1.176.341-1.176.52l-1.939,1.492c0,.15.378.271.526.271,0,0,95.261,0,95.532-.271l-1.939-1.492c0-.179-1-.489-1.175-.52l-.8-.092S1145.918,476.244,1145.391,476.338Z" transform="translate(-1141.113 -475.313)" fill="#dfdede"></path><path id="Trazado_33395" data-name="Trazado 33395" d="M1145.224,476.369c-.185.032-1.146.34-1.146.524l-1.853,1.51c0,.153.37.277.524.277,0,0,95.358,0,95.637-.277l-1.853-1.51c0-.185-.964-.491-1.146-.524l-.807-.092S1145.765,476.273,1145.224,476.369Z" transform="translate(-1141.109 -475.316)" fill="#e0dfdf"></path><path id="Trazado_33396" data-name="Trazado 33396" d="M1145.054,476.4c-.185.033-1.117.338-1.117.527l-1.769,1.527c0,.158.362.286.52.286,0,0,95.455,0,95.741-.286l-1.768-1.527c0-.19-.93-.494-1.117-.527l-.81-.1S1145.608,476.306,1145.054,476.4Z" transform="translate(-1141.105 -475.317)" fill="#e1e0e0"></path><path id="Trazado_33397" data-name="Trazado 33397" d="M1144.887,476.432c-.192.034-1.088.336-1.088.531l-1.684,1.545c0,.163.355.294.516.294,0,0,95.552,0,95.846-.294l-1.684-1.545c0-.195-.9-.5-1.088-.531l-.813-.1S1145.458,476.33,1144.887,476.432Z" transform="translate(-1141.101 -475.32)" fill="#e2e1e1"></path><path id="Trazado_33398" data-name="Trazado 33398" d="M1144.719,476.463c-.2.035-1.059.335-1.059.535l-1.6,1.563c0,.166.346.3.512.3,0,0,95.649,0,95.956-.3l-1.6-1.563c0-.2-.862-.5-1.059-.535l-.816-.1S1145.306,476.359,1144.719,476.463Z" transform="translate(-1141.097 -475.322)" fill="#e3e2e2"></path><path id="Trazado_33399" data-name="Trazado 33399" d="M1144.551,476.5c-.2.036-1.03.333-1.03.538l-1.516,1.58c0,.171.339.309.51.309,0,0,95.746,0,96.056-.309l-1.516-1.58c0-.205-.831-.5-1.03-.538l-.819-.107S1145.153,476.388,1144.551,476.5Z" transform="translate(-1141.093 -475.324)" fill="#e4e3e3"></path><path id="Trazado_33400" data-name="Trazado 33400" d="M1144.383,476.527c-.207.037-1,.332-1,.542l-1.432,1.6c0,.175.332.317.506.317,0,0,95.843,0,96.161-.317l-1.432-1.6c0-.211-.793-.505-1-.542l-.822-.11S1145,476.417,1144.383,476.527Z" transform="translate(-1141.088 -475.326)" fill="#e5e4e4"></path><path id="Trazado_33401" data-name="Trazado 33401" d="M1144.214,476.559c-.212.038-.972.331-.972.546l-1.347,1.616c0,.179.323.325.5.325,0,0,95.94,0,96.265-.325l-1.348-1.616c0-.215-.76-.508-.972-.546l-.825-.113S1144.846,476.446,1144.214,476.559Z" transform="translate(-1141.084 -475.329)" fill="#e6e5e5"></path><path id="Trazado_33402" data-name="Trazado 33402" d="M1144.046,476.589c-.217.039-.943.329-.943.549l-1.263,1.634c0,.185.316.332.5.332,0,0,96.037,0,96.37-.332l-1.263-1.634c0-.221-.725-.511-.943-.549l-.831-.115S1144.693,476.474,1144.046,476.589Z" transform="translate(-1141.08 -475.331)" fill="#e7e6e6"></path><path id="Trazado_33403" data-name="Trazado 33403" d="M1143.878,476.621c-.223.04-.913.327-.913.554l-1.178,1.652c0,.185.308.34.5.34,0,0,96.134,0,96.475-.34l-1.178-1.652c0-.225-.692-.513-.913-.554l-.831-.118S1144.536,476.5,1143.878,476.621Z" transform="translate(-1141.076 -475.333)" fill="#e8e6e6"></path><path id="Trazado_33404" data-name="Trazado 33404" d="M1143.709,476.653c-.227.041-.885.326-.885.554l-1.094,1.67c0,.192.3.348.493.348,0,0,96.233,0,96.58-.348l-1.094-1.67c0-.231-.658-.516-.884-.554l-.831-.121S1144.386,476.532,1143.709,476.653Z" transform="translate(-1141.071 -475.335)" fill="#e9e7e7"></path><path id="Trazado_33405" data-name="Trazado 33405" d="M1143.542,476.685c-.232.042-.855.324-.855.561l-1.01,1.687c0,.2.293.356.49.356,0,0,96.325,0,96.684-.356l-1.01-1.687c0-.236-.623-.519-.855-.561l-.837-.124S1144.234,476.561,1143.542,476.685Z" transform="translate(-1141.068 -475.337)" fill="#eae8e8"></path><path id="Trazado_33406" data-name="Trazado 33406" d="M1143.373,476.717c-.237.043-.826.323-.826.564l-.923,1.7c0,.2.285.364.486.364,0,0,96.426,0,96.787-.364l-.923-1.7c0-.241-.589-.522-.826-.564l-.84-.126S1144.082,476.59,1143.373,476.717Z" transform="translate(-1141.064 -475.34)" fill="#ebe9e9"></path><path id="Trazado_33407" data-name="Trazado 33407" d="M1143.205,476.743c-.242.043-.8.321-.8.568l-.842,1.722c0,.205.277.369.482.369,0,0,96.523,0,96.894-.369l-.842-1.722c0-.247-.554-.525-.8-.568l-.843-.129S1143.928,476.618,1143.205,476.743Z" transform="translate(-1141.059 -475.341)" fill="#eceaea"></path><path id="Trazado_33408" data-name="Trazado 33408" d="M1143.037,476.779c-.247.044-.767.32-.767.572l-.758,1.74c0,.21.27.379.479.379,0,0,96.62,0,97-.379l-.755-1.745c0-.251-.521-.527-.768-.572l-.846-.131S1143.775,476.647,1143.037,476.779Z" transform="translate(-1141.055 -475.344)" fill="#edebeb"></path><path id="Trazado_33409" data-name="Trazado 33409" d="M1142.869,476.81c-.252.045-.739.319-.739.575l-.674,1.755c0,.213.262.387.475.387,0,0,96.717,0,97.1-.387l-.673-1.755c0-.257-.487-.53-.739-.575l-.849-.135S1143.622,476.676,1142.869,476.81Z" transform="translate(-1141.051 -475.346)" fill="#eeecec"></path><path id="Trazado_33410" data-name="Trazado 33410" d="M1142.7,476.842c-.258.046-.71.317-.71.579l-.589,1.776a.468.468,0,0,0,.472.394s96.814,0,97.208-.394l-.589-1.776c0-.261-.452-.533-.709-.579l-.852-.137S1143.468,476.7,1142.7,476.842Z" transform="translate(-1141.046 -475.348)" fill="#efeded"></path><path id="Trazado_33411" data-name="Trazado 33411" d="M1142.531,476.872c-.262.047-.681.316-.681.582l-.505,1.793a.462.462,0,0,0,.469.4s96.911,0,97.312-.4l-.505-1.793c0-.267-.418-.536-.681-.582l-.855-.139S1143.315,476.733,1142.531,476.872Z" transform="translate(-1141.042 -475.35)" fill="#f0eeee"></path><path id="Trazado_33412" data-name="Trazado 33412" d="M1142.365,476.9c-.268.048-.651.314-.651.586l-.421,1.811a.461.461,0,0,0,.462.41s97.008,0,97.418-.41l-.421-1.811c0-.272-.384-.538-.652-.586l-.858-.142S1143.162,476.762,1142.365,476.9Z" transform="translate(-1141.038 -475.353)" fill="#f1efef"></path><path id="Trazado_33413" data-name="Trazado 33413" d="M1142.2,476.941c-.277.049-.623.313-.623.589l-.337,1.829a.462.462,0,0,0,.462.417s97.1,0,97.526-.417l-.337-1.829c0-.277-.35-.541-.622-.589l-.861-.145S1143.008,476.791,1142.2,476.941Z" transform="translate(-1141.034 -475.355)" fill="#f2f0f0"></path><path id="Trazado_33414" data-name="Trazado 33414" d="M1142.028,476.968a.717.717,0,0,0-.594.594l-.252,1.847a.456.456,0,0,0,.462.426s97.2,0,97.627-.426l-.253-1.847a.719.719,0,0,0-.593-.594l-.864-.148S1142.856,476.82,1142.028,476.968Z" transform="translate(-1141.03 -475.357)" fill="#f3f1f1"></path><path id="Trazado_33415" data-name="Trazado 33415" d="M1141.86,477a.681.681,0,0,0-.564.6l-.168,1.865a.452.452,0,0,0,.455.433s97.3,0,97.732-.433l-.168-1.865a.681.681,0,0,0-.564-.6l-.867-.15S1142.7,476.853,1141.86,477Z" transform="translate(-1141.026 -475.359)" fill="#f4f2f2"></path><path id="Trazado_33416" data-name="Trazado 33416" d="M1141.692,477.031a.647.647,0,0,0-.535.6l-.085,1.881a.45.45,0,0,0,.452.441s97.4,0,97.837-.441l-.084-1.881a.647.647,0,0,0-.535-.6l-.87-.153S1142.55,476.878,1141.692,477.031Z" transform="translate(-1141.021 -475.362)" fill="#f5f3f3"></path><path id="Trazado_33417" data-name="Trazado 33417" d="M1238.9,477.062l-.873-.156H1142.4l-.873.156a.615.615,0,0,0-.506.6v1.9a.448.448,0,0,0,.449.449h97.493a.449.449,0,0,0,.449-.449h0v-1.9A.614.614,0,0,0,1238.9,477.062Z" transform="translate(-1141.017 -475.364)" fill="#f6f4f4"></path></g><g id="Grupo_24691" data-name="Grupo 24691"><path id="Trazado_33418" data-name="Trazado 33418" d="M1304.052,250.867h-252.68c-4.161,0-7.535,3.657-7.535,8.169V418.52c0,4.511,3.374,8.169,7.535,8.169h252.68c4.161,0,7.535-3.657,7.535-8.169V259.036C1311.585,254.524,1308.213,250.867,1304.052,250.867Z" transform="translate(-1043.836 -250.867)" fill="url(#linear-gradient)"></path><path id="Trazado_33419" data-name="Trazado 33419" d="M1302.981,252.392H1052.425a7.77,7.77,0,0,0-7.469,8.035V417.358a7.766,7.766,0,0,0,7.469,8.035h250.556a7.77,7.77,0,0,0,7.469-8.035V260.43A7.769,7.769,0,0,0,1302.981,252.392Z" transform="translate(-1043.922 -250.984)" fill="#003336"></path><g id="Grupo_24688" data-name="Grupo 24688" transform="translate(134.279 3.033)"><g id="Grupo_24687" data-name="Grupo 24687"><circle id="Elipse_4306" data-name="Elipse 4306" cx="2.425" cy="2.425" r="2.425" fill="none" stroke="#262626" stroke-miterlimit="10" stroke-width="0.075"></circle></g></g><g id="Grupo_24690" data-name="Grupo 24690" transform="translate(6.818 7.884)"><g id="Grupo_24689" data-name="Grupo 24689"><rect id="Rect&#xE1;ngulo_20461" data-name="Rect&#xE1;ngulo 20461" width="253.714" height="161.226" fill="#f3fff8"></rect></g></g></g></g></g></g><g id="LogoEmpresas_V" data-name="LogoEmpresas V" transform="translate(1035.616 829.51)"><path id="Trazado_665" data-name="Trazado 665" d="M1206.7,343.757a1.5,1.5,0,0,1,.124-.617,1.575,1.575,0,0,1,2.063-.836,1.656,1.656,0,0,1,.5.335,1.771,1.771,0,0,1,.34.5,1.559,1.559,0,0,1,0,1.226,1.669,1.669,0,0,1-.34.5,1.619,1.619,0,0,1-.5.34,1.557,1.557,0,0,1-1.226,0,1.626,1.626,0,0,1-.5-.34,1.594,1.594,0,0,1-.335-.5,1.489,1.489,0,0,1-.125-.61Zm.43,0a1.252,1.252,0,0,0,.09.465,1.149,1.149,0,0,0,.245.376,1.181,1.181,0,0,0,.366.259,1.078,1.078,0,0,0,.446.1,1.127,1.127,0,0,0,.445-.1,1.223,1.223,0,0,0,.361-.259,1.071,1.071,0,0,0,.245-.376,1.246,1.246,0,0,0,0-.932,1.112,1.112,0,0,0-.245-.381,1.3,1.3,0,0,0-.361-.255,1.033,1.033,0,0,0-.445-.1.992.992,0,0,0-.446.1,1.252,1.252,0,0,0-.366.255,1.219,1.219,0,0,0-.335.847Zm.541-.847h.771a.664.664,0,0,1,.231.061.5.5,0,0,1,.2.155.621.621,0,0,1,.05.5.363.363,0,0,1-.085.135.38.38,0,0,1-.126.08.528.528,0,0,1-.141.035l.426.661h-.445l-.382-.638h-.069v.638h-.431Zm.424.686h.256a.212.212,0,0,0,.085,0,.161.161,0,0,0,.065-.049.185.185,0,0,0,.025-.1.183.183,0,0,0-.025-.1.214.214,0,0,0-.065-.052h-.341Z" transform="translate(-1152.922 -291.189)" fill="#004b40"></path><path id="Trazado_666" data-name="Trazado 666" d="M1209.368,353.721h-4.26l-3.419-5.684h-.065v5.684h-3.467v-10.46h3.466v3.564h.066l3.336-3.58h4.18l-4.008,4.063Z" transform="translate(-1156.419 -290.753)" fill="#004b40"></path><path id="Trazado_667" data-name="Trazado 667" d="M1196.136,353.8v-5.714c0-1.157-.316-2.208-1.553-2.208s-1.848,1.051-1.848,2.248V353.8h-3.464v-10.46h3.335l.041.961a4.245,4.245,0,0,1,3.129-1.257c2.816,0,3.821,2.183,3.821,4.286v6.47Z" transform="translate(-1160.056 -290.835)" fill="#004b40"></path><path id="Trazado_668" data-name="Trazado 668" d="M1185.38,353.514v-9.579l3.31-1.261v12.1Z" transform="translate(-1161.649 -290.987)" fill="#004b40"></path><path id="Trazado_669" data-name="Trazado 669" d="M1181.769,354.145a5.532,5.532,0,0,1-5.794-5.608c0-3.426,2.646-5.509,5.794-5.509s5.819,2.1,5.819,5.509A5.552,5.552,0,0,1,1181.769,354.145Zm0-8.277a2.478,2.478,0,0,0-2.454,2.669,2.483,2.483,0,1,0,2.595-2.665C1181.863,345.869,1181.817,345.868,1181.769,345.868Z" transform="translate(-1165.499 -290.842)" fill="#004b40"></path><path id="Trazado_670" data-name="Trazado 670" d="M1176.26,350.36a2.709,2.709,0,1,1-.267-3.821,2.8,2.8,0,0,1,.267.265l1.893-2.163a5.568,5.568,0,1,0,0,7.883Z" transform="translate(-1168.497 -290.847)" fill="#004b40"></path><path id="Trazado_671" data-name="Trazado 671" d="M1213.129,310.685c-.255.626-.626,1.608-1,2.75-.2.616-.345,1.177-.5,1.708a10.24,10.24,0,0,1-1.834,4.191,22.693,22.693,0,0,0-2.409-4.678,7.169,7.169,0,0,1,3.084-2.424l-.583-1.236c-3.2,1.5-3.911,3.409-3.942,3.505l-.124.351.23.3a24.672,24.672,0,0,1,4.18,13.994c0,9.513-2.7,13.589-3.661,14.726l-2.083-1.316-1.622,1.232a6.416,6.416,0,0,1-1.076-1.783c.575-.171,1.151-.351,1.716-.555l-.469-1.287a25.379,25.379,0,0,1-17.476,0l-.465,1.287c.565.206,1.142.386,1.712.555a6.549,6.549,0,0,1-1.112,1.783l-1.667-1.267-2.083,1.322c-.961-1.122-3.661-5.133-3.661-14.732a24.532,24.532,0,0,1,4.187-14l.23-.3-.125-.351c-.03-.08-.743-2-3.946-3.505l-.581,1.281a7.135,7.135,0,0,1,3.081,2.424,22.716,22.716,0,0,0-2.409,4.676,10.218,10.218,0,0,1-1.834-4.191c-.14-.53-.29-1.091-.5-1.707-.355-1.142-.732-2.125-.977-2.75a9.954,9.954,0,0,1,9.815,2.55l.306.351.441-.165a23.9,23.9,0,0,1,7.51-1.439h1.557a23.9,23.9,0,0,1,7.51,1.443l.441.159.31-.341A9.937,9.937,0,0,1,1213.129,310.685Z" transform="translate(-1165.732 -304.242)" fill="url(#linear-gradient-2)"></path><path id="Trazado_672" data-name="Trazado 672" d="M1215.289,310.7a13.384,13.384,0,0,0-4.1-.671A12.127,12.127,0,0,0,1203.3,313a25.726,25.726,0,0,0-3.831-.946,4.612,4.612,0,1,0-8.763,0,25.923,25.923,0,0,0-3.825.946,12.132,12.132,0,0,0-7.9-2.968,13.434,13.434,0,0,0-4.1.671l-1.447.478.621,1.392a30.237,30.237,0,0,1,1.2,3.229c.175.585.319,1.122.461,1.643a11.536,11.536,0,0,0,2.529,5.3,28.113,28.113,0,0,0-1.182,8.146,32.142,32.142,0,0,0,2.231,12.88,10.384,10.384,0,0,0,2.5,3.776l.765.641.841-.537,1.352-.856,1.037.791,1,.767.841-.956a11.931,11.931,0,0,0,1.652-2.5,27.1,27.1,0,0,0,11.629,0,11.947,11.947,0,0,0,1.652,2.5l.842.956,1-.767,1.036-.791,1.353.856.841.537.761-.638a10.588,10.588,0,0,0,2.5-3.774,32.336,32.336,0,0,0,2.208-12.884,28.048,28.048,0,0,0-1.2-8.149,11.5,11.5,0,0,0,2.5-5.3c.14-.5.29-1.057.465-1.642a32.527,32.527,0,0,1,1.238-3.23l.627-1.392Zm-23.451-.1a3.25,3.25,0,1,1,6.251,1.253,27.28,27.28,0,0,0-6.01,0A3.265,3.265,0,0,1,1191.839,310.6Zm21.122,4.593c-.2.616-.345,1.175-.5,1.707a10.227,10.227,0,0,1-1.834,4.191,22.527,22.527,0,0,0-2.409-4.674,7.188,7.188,0,0,1,3.085-2.428l-.585-1.237c-3.2,1.5-3.911,3.409-3.941,3.505l-.128.354.231.3a24.668,24.668,0,0,1,4.18,14c0,9.515-2.7,13.591-3.66,14.728l-2.082-1.319-1.646,1.232a6.4,6.4,0,0,1-1.077-1.783c.575-.171,1.151-.35,1.718-.555l-.471-1.287a25.38,25.38,0,0,1-17.476,0l-.465,1.287c.565.206,1.142.386,1.713.555a6.537,6.537,0,0,1-1.112,1.783l-1.668-1.267-2.087,1.322c-.963-1.122-3.661-5.132-3.661-14.732a24.547,24.547,0,0,1,4.186-14l.231-.3-.125-.351c-.031-.079-.744-2-3.946-3.505l-.578,1.282a7.114,7.114,0,0,1,3.081,2.428,22.5,22.5,0,0,0-2.409,4.675,10.211,10.211,0,0,1-1.832-4.191c-.141-.531-.292-1.092-.5-1.708-.355-1.142-.726-2.124-.977-2.75a9.954,9.954,0,0,1,9.815,2.551l.306.349.441-.165a23.9,23.9,0,0,1,7.51-1.447h1.558a23.866,23.866,0,0,1,7.51,1.445l.441.159.311-.34a9.933,9.933,0,0,1,9.794-2.575c-.22.637-.59,1.619-.941,2.761Z" transform="translate(-1166.541 -306)" fill="#004b40"></path><path id="Trazado_673" data-name="Trazado 673" d="M1189.847,319.105a1.055,1.055,0,0,0-1.051,1.056v.609a1.051,1.051,0,0,0,2.1.149.924.924,0,0,0,0-.149v-.609A1.056,1.056,0,0,0,1189.847,319.105Zm3.546,0a1.056,1.056,0,0,0-1.053,1.056v.609a1.052,1.052,0,0,0,2.1.149.953.953,0,0,0,0-.149v-.609a1.051,1.051,0,0,0-1.047-1.056h0Zm0,0a1.056,1.056,0,0,0-1.053,1.056v.609a1.052,1.052,0,0,0,2.1.149.953.953,0,0,0,0-.149v-.609a1.051,1.051,0,0,0-1.047-1.056h0Zm-3.546,0a1.055,1.055,0,0,0-1.051,1.056v.609a1.051,1.051,0,0,0,2.1.149.924.924,0,0,0,0-.149v-.609A1.056,1.056,0,0,0,1189.847,319.105Zm8.047-.116a4.022,4.022,0,0,0-2.91-1.789,22.854,22.854,0,0,0-6.734,0,4.14,4.14,0,0,0-2.905,1.807,2.962,2.962,0,0,0,.07,2.7c1.291,2.9,4.506,4.682,6.2,4.682s4.908-1.8,6.2-4.682a2.966,2.966,0,0,0,.07-2.72Zm-1.322,2.138c-1.073,2.4-3.817,3.87-4.953,3.87s-3.881-1.471-4.958-3.87a1.7,1.7,0,0,1-.106-1.5,2.808,2.808,0,0,1,1.938-1.1,21.781,21.781,0,0,1,6.253,0,2.848,2.848,0,0,1,1.943,1.1A1.705,1.705,0,0,1,1196.572,321.128Zm-3.181-2.006a1.057,1.057,0,0,0-1.051,1.057v.606a1.052,1.052,0,0,0,2.1.149,1.386,1.386,0,0,0,0-.149v-.624a1.052,1.052,0,0,0-1.047-1.056Zm-3.545,0a1.057,1.057,0,0,0-1.053,1.057v.606a1.052,1.052,0,0,0,2.1.149.925.925,0,0,0,0-.149v-.624a1.056,1.056,0,0,0-1.046-1.056Zm0,0a1.057,1.057,0,0,0-1.053,1.057v.606a1.052,1.052,0,0,0,2.1.149.925.925,0,0,0,0-.149v-.624a1.056,1.056,0,0,0-1.046-1.056Zm3.545,0a1.057,1.057,0,0,0-1.051,1.057v.606a1.052,1.052,0,0,0,2.1.149,1.386,1.386,0,0,0,0-.149v-.624a1.052,1.052,0,0,0-1.047-1.056Zm-3.545-.017a1.056,1.056,0,0,0-1.053,1.056v.609a1.052,1.052,0,0,0,2.1.149.924.924,0,0,0,0-.149v-.609A1.056,1.056,0,0,0,1189.847,319.105Zm3.545,0a1.056,1.056,0,0,0-1.051,1.056v.609a1.052,1.052,0,0,0,2.1.149,1.385,1.385,0,0,0,0-.149v-.609A1.052,1.052,0,0,0,1193.391,319.105Zm0,0a1.056,1.056,0,0,0-1.051,1.056v.609a1.052,1.052,0,0,0,2.1.149,1.385,1.385,0,0,0,0-.149v-.609A1.052,1.052,0,0,0,1193.391,319.105Zm-3.545,0a1.056,1.056,0,0,0-1.053,1.056v.609a1.052,1.052,0,0,0,2.1.149.924.924,0,0,0,0-.149v-.609A1.056,1.056,0,0,0,1189.847,319.105Zm8.046-.116a4.02,4.02,0,0,0-2.909-1.789,22.865,22.865,0,0,0-6.736,0,4.137,4.137,0,0,0-2.9,1.807,2.966,2.966,0,0,0,.069,2.7c1.292,2.9,4.507,4.682,6.206,4.682s4.908-1.8,6.2-4.682a2.969,2.969,0,0,0,.07-2.72Zm-1.32,2.138c-1.073,2.4-3.817,3.87-4.953,3.87s-3.881-1.471-4.958-3.87a1.7,1.7,0,0,1-.106-1.5,2.808,2.808,0,0,1,1.938-1.1,21.781,21.781,0,0,1,6.253,0,2.848,2.848,0,0,1,1.943,1.1A1.705,1.705,0,0,1,1196.572,321.128Zm-3.181-2.006a1.057,1.057,0,0,0-1.051,1.057v.606a1.052,1.052,0,0,0,2.1.149,1.386,1.386,0,0,0,0-.149v-.624a1.052,1.052,0,0,0-1.047-1.056Zm-3.545,0a1.057,1.057,0,0,0-1.053,1.057v.606a1.052,1.052,0,0,0,2.1.149.925.925,0,0,0,0-.149v-.624a1.056,1.056,0,0,0-1.046-1.056Zm0-.017a1.056,1.056,0,0,0-1.052,1.056v.609a1.052,1.052,0,0,0,2.1.149,1.219,1.219,0,0,0,0-.149v-.609A1.056,1.056,0,0,0,1189.844,319.105Zm3.546,0a1.055,1.055,0,0,0-1.051,1.056v.609a1.052,1.052,0,0,0,2.1.149,1.27,1.27,0,0,0,0-.149v-.609a1.052,1.052,0,0,0-1.046-1.056Zm0,0a1.055,1.055,0,0,0-1.051,1.056v.609a1.052,1.052,0,0,0,2.1.149,1.27,1.27,0,0,0,0-.149v-.609a1.052,1.052,0,0,0-1.046-1.056Zm-3.546,0a1.056,1.056,0,0,0-1.052,1.056v.609a1.052,1.052,0,0,0,2.1.149,1.219,1.219,0,0,0,0-.149v-.609A1.056,1.056,0,0,0,1189.844,319.105Zm8.048-.116a4.022,4.022,0,0,0-2.909-1.789,22.864,22.864,0,0,0-6.736,0,4.142,4.142,0,0,0-2.9,1.807,2.965,2.965,0,0,0,.07,2.7c1.293,2.9,4.507,4.682,6.2,4.682s4.907-1.8,6.205-4.682a2.971,2.971,0,0,0,.07-2.72Zm-1.319,2.138c-1.073,2.4-3.817,3.87-4.953,3.87s-3.881-1.471-4.958-3.87a1.7,1.7,0,0,1-.106-1.5,2.808,2.808,0,0,1,1.938-1.1,21.781,21.781,0,0,1,6.253,0,2.848,2.848,0,0,1,1.943,1.1A1.705,1.705,0,0,1,1196.572,321.128Zm-3.181-2.006a1.057,1.057,0,0,0-1.051,1.057v.606a1.052,1.052,0,0,0,2.1.149,1.386,1.386,0,0,0,0-.149v-.624a1.052,1.052,0,0,0-1.047-1.056Zm-3.545,0a1.057,1.057,0,0,0-1.053,1.057v.606a1.052,1.052,0,0,0,2.1.149.925.925,0,0,0,0-.149v-.624a1.056,1.056,0,0,0-1.046-1.056Zm0,0a1.056,1.056,0,0,0-1.051,1.057v.606a1.051,1.051,0,0,0,2.1.149.925.925,0,0,0,0-.149v-.624a1.056,1.056,0,0,0-1.046-1.056ZM1183.4,315.3a1.5,1.5,0,1,0,1.5,1.5h0A1.5,1.5,0,0,0,1183.4,315.3Zm10.017,3.8a1.056,1.056,0,0,0-1.053,1.056v.609a1.052,1.052,0,0,0,2.1.149,1.173,1.173,0,0,0,0-.149v-.609a1.05,1.05,0,0,0-1.047-1.056h0Zm6.447-3.8a1.525,1.525,0,1,1-.02,0Z" transform="translate(-1163.076 -302.191)" fill="#004b40"></path><path id="Trazado_674" data-name="Trazado 674" d="M1195.362,318.754a2.813,2.813,0,0,0-1.944-1.1,21.655,21.655,0,0,0-6.234,0,2.843,2.843,0,0,0-1.938,1.1,1.7,1.7,0,0,0,.106,1.5c1.076,2.4,3.821,3.872,4.957,3.872s3.881-1.473,4.952-3.872A1.7,1.7,0,0,0,1195.362,318.754Zm-5.79,1.143a1.052,1.052,0,0,1-2.1.149.9.9,0,0,1,0-.149v-.606a1.052,1.052,0,0,1,2.1-.149c0,.051,0,.1,0,.149Zm3.544,0a1.051,1.051,0,1,1-2.1.149.848.848,0,0,1,0-.149v-.606a1.051,1.051,0,1,1,2.1-.149.848.848,0,0,1,0,.149Z" transform="translate(-1161.756 -301.32)" fill="#afff6a"></path><path id="Trazado_675" data-name="Trazado 675" d="M1192.989,310.21a3.605,3.605,0,0,1-.065.661,3.5,3.5,0,0,1-.181.591,27.268,27.268,0,0,0-6.008,0,3.379,3.379,0,0,1-.186-.591,3.584,3.584,0,0,1-.065-.661,3.255,3.255,0,1,1,6.51,0Z" transform="translate(-1161.197 -305.609)" fill="#fbb040"></path><path id="Trazado_676" data-name="Trazado 676" d="M1171.792,355.759v.744h-2.4v1.1h2.155v.743h-2.155v1.116h2.476v.743h-3.326v-4.442Z" transform="translate(-1168.542 -285.63)" fill="#004b40"></path><path id="Trazado_677" data-name="Trazado 677" d="M1174.749,355.764l1.391,2.848,1.387-2.848h.976V360.2h-.771v-3.17l-1.312,2.7h-.551l-1.311-2.714v3.17h-.8v-4.441Z" transform="translate(-1166.405 -285.634)" fill="#004b40"></path><path id="Trazado_678" data-name="Trazado 678" d="M1183.728,357.291a1.541,1.541,0,0,1-1.758,1.6H1181V360.2h-.85v-4.442h1.815C1183.086,355.759,1183.728,356.314,1183.728,357.291Zm-.806.024c0-.545-.361-.81-1-.81h-.915v1.638h.922C1182.563,358.142,1182.922,357.872,1182.922,357.315Z" transform="translate(-1163.789 -285.63)" fill="#004b40"></path><path id="Trazado_679" data-name="Trazado 679" d="M1188.216,360.2l-.771-1.312h-1.157V360.2h-.85v-4.442h1.854c1.146,0,1.8.557,1.8,1.533a1.442,1.442,0,0,1-.881,1.442l1,1.473Zm-1.928-2.059h1c.63,0,1-.271,1-.826s-.355-.812-1-.812h-1Z" transform="translate(-1161.625 -285.632)" fill="#004b40"></path><path id="Trazado_680" data-name="Trazado 680" d="M1194.191,355.759v.744h-2.4v1.1h2.139v.743h-2.155v1.116h2.475v.743h-3.324v-4.442Z" transform="translate(-1159.378 -285.63)" fill="#004b40"></path><path id="Trazado_681" data-name="Trazado 681" d="M1197.734,356.507c-.4,0-.661.145-.661.421,0,.9,2.385.41,2.379,2,0,.831-.726,1.312-1.7,1.312a2.88,2.88,0,0,1-1.873-.712l.355-.715a2.512,2.512,0,0,0,1.533.657c.5,0,.761-.18.761-.5,0-.926-2.385-.4-2.385-1.977,0-.771.667-1.267,1.663-1.267a3.045,3.045,0,0,1,1.6.467l-.347.736A2.819,2.819,0,0,0,1197.734,356.507Z" transform="translate(-1157.353 -285.643)" fill="#004b40"></path><path id="Trazado_682" data-name="Trazado 682" d="M1204.259,359.26h-2.168l-.391.94h-.882l1.944-4.441h.882l1.922,4.441h-.912Zm-.306-.727-.771-1.867-.781,1.867Z" transform="translate(-1155.329 -285.63)" fill="#004b40"></path><path id="Trazado_683" data-name="Trazado 683" d="M1208.368,356.508c-.4,0-.659.145-.659.421,0,.9,2.384.41,2.378,2,0,.832-.721,1.312-1.7,1.312a2.878,2.878,0,0,1-1.877-.712l.355-.716a2.508,2.508,0,0,0,1.532.657c.5,0,.761-.18.761-.5,0-.926-2.383-.4-2.383-1.977,0-.772.667-1.267,1.663-1.267a3.045,3.045,0,0,1,1.6.465l-.341.737A2.838,2.838,0,0,0,1208.368,356.508Z" transform="translate(-1152.999 -285.643)" fill="#004b40"></path></g><path id="Rect&#xE1;ngulo_21188" data-name="Rect&#xE1;ngulo 21188" d="M0,0H37.138a0,0,0,0,1,0,0V12.415a8.208,8.208,0,0,1-8.208,8.208H8.208A8.208,8.208,0,0,1,0,12.415V0A0,0,0,0,1,0,0Z" transform="translate(907.77 797.599)" fill="#9cdda8"></path><g id="Grupo_29943" data-name="Grupo 29943" transform="translate(907.77 745.479)"><path id="Trazado_41316" data-name="Trazado 41316" d="M877.294,218.643h0a18.568,18.568,0,0,1-18.569-18.569v-2.055h37.138v2.055A18.568,18.568,0,0,1,877.294,218.643Z" transform="translate(-821.588 -145.9)" fill="#45b45a"></path><path id="Trazado_41317" data-name="Trazado 41317" d="M895.834,218.643h0a18.568,18.568,0,0,1-18.569-18.569v-2.055H914.4v2.055A18.568,18.568,0,0,1,895.834,218.643Z" transform="translate(-802.99 -145.9)" fill="#9cdda8"></path><path id="Rect&#xE1;ngulo_21189" data-name="Rect&#xE1;ngulo 21189" d="M0,0H37.138a0,0,0,0,1,0,0V12.415a8.208,8.208,0,0,1-8.208,8.208H8.208A8.208,8.208,0,0,1,0,12.415V0A0,0,0,0,1,0,0Z" transform="translate(111.413 52.12)" fill="#45b45a"></path><path id="Trazado_41318" data-name="Trazado 41318" d="M932.914,218.643h0a18.568,18.568,0,0,1-18.569-18.569v-2.055h37.138v2.055A18.57,18.57,0,0,1,932.914,218.643Z" transform="translate(-765.794 -145.9)" fill="#9cdda8"></path><path id="Trazado_41319" data-name="Trazado 41319" d="M951.452,218.643h0a18.568,18.568,0,0,1-18.567-18.569v-2.055h37.136v2.055A18.568,18.568,0,0,1,951.452,218.643Z" transform="translate(-747.196 -145.9)" fill="#45b45a"></path><path id="Rect&#xE1;ngulo_21190" data-name="Rect&#xE1;ngulo 21190" d="M0,0H37.138a0,0,0,0,1,0,0V12.415a8.208,8.208,0,0,1-8.208,8.208H8.208A8.208,8.208,0,0,1,0,12.415V0A0,0,0,0,1,0,0Z" transform="translate(222.826 52.12)" fill="#9cdda8"></path><path id="Rect&#xE1;ngulo_21191" data-name="Rect&#xE1;ngulo 21191" d="M0,0H37.138a0,0,0,0,1,0,0V12.415a8.208,8.208,0,0,1-8.208,8.208H8.208A8.208,8.208,0,0,1,0,12.415V0A0,0,0,0,1,0,0Z" transform="translate(259.963 52.12)" fill="#45b45a"></path><g id="Grupo_29942" data-name="Grupo 29942"><path id="Trazado_41320" data-name="Trazado 41320" d="M915.611,172H891.236l-51.051,52.12h37.138Z" transform="translate(-840.185 -172)" fill="#45b45a"></path><path id="Trazado_41321" data-name="Trazado 41321" d="M921.388,172H897.013l-38.288,52.12h37.138Z" transform="translate(-821.588 -172)" fill="#9cdda8"></path><path id="Trazado_41322" data-name="Trazado 41322" d="M927.166,172H902.791l-25.526,52.12H914.4Z" transform="translate(-802.99 -172)" fill="#45b45a"></path><path id="Trazado_41323" data-name="Trazado 41323" d="M932.943,172H908.568L895.8,224.12h37.138Z" transform="translate(-784.392 -172)" fill="#9cdda8"></path><path id="Trazado_41324" data-name="Trazado 41324" d="M938.72,172H914.345v52.12h37.137Z" transform="translate(-765.795 -172)" fill="#45b45a"></path><path id="Trazado_41325" data-name="Trazado 41325" d="M950.888,172H926.513l12.763,52.12h37.138Z" transform="translate(-753.588 -172)" fill="#9cdda8"></path><path id="Trazado_41326" data-name="Trazado 41326" d="M963.057,172H938.682l25.526,52.12h37.138Z" transform="translate(-741.381 -172)" fill="#45b45a"></path><path id="Trazado_41327" data-name="Trazado 41327" d="M975.225,172H950.85l38.288,52.12h37.137Z" transform="translate(-729.175 -172)" fill="#9cdda8"></path></g></g></g><g id="Grupo_29960" data-name="Grupo 29960" transform="translate(1187.034 763.154)"><path id="Trazado_41378" data-name="Trazado 41378" d="M20.383,8.921A16.453,16.453,0,0,0,4,25.444c.039,9.086,7.436,15.936,16.522,15.9S36.944,34.39,36.9,25.3A16.452,16.452,0,0,0,20.383,8.921Z" transform="translate(-4 -7.719)" fill="#ffa81d"></path><path id="Trazado_41379" data-name="Trazado 41379" d="M36.559,14.991a16.244,16.244,0,0,0-1.224-3.655,16.546,16.546,0,0,0-6.087-6.886q-.359-.227-.731-.437A16.3,16.3,0,0,0,24.839,2.5c-.435-.12-.878-.223-1.326-.306s-.907-.153-1.37-.2a16.1,16.1,0,0,0-1.76-.086,16.666,16.666,0,0,0-1.835.109q-.679.078-1.343.212A16.466,16.466,0,0,0,4.321,15.111q-.134.662-.21,1.341A16.125,16.125,0,0,0,4,18.427c0,.548.031,1.088.086,1.623q.071.694.2,1.369t.308,1.325v0A16.265,16.265,0,0,0,6.11,26.421q.21.371.437.732a16.544,16.544,0,0,0,6.886,6.087,16.188,16.188,0,0,0,3.653,1.225,16.579,16.579,0,0,0,5.457.214,16.187,16.187,0,0,0,2.48-.512A16.488,16.488,0,0,0,36.261,22.927a16.264,16.264,0,0,0,.512-2.48,16.584,16.584,0,0,0-.213-5.457Z" transform="translate(-4 -1.906)" fill="#ffd522"></path><path id="Trazado_41380" data-name="Trazado 41380" d="M42.33,16.962,19.065,40.227a16.418,16.418,0,0,1-2.752-3.611L38.72,14.21A16.5,16.5,0,0,1,42.33,16.962Z" transform="translate(-14.203 -12.101)" fill="#ffb311"></path><path id="Trazado_41381" data-name="Trazado 41381" d="M32.117,7.312l-22.7,22.7q-.227-.359-.437-.732a16.266,16.266,0,0,1-1.517-3.676v0L27.708,5.358a16.3,16.3,0,0,1,3.677,1.517Q31.757,7.085,32.117,7.312Z" transform="translate(-6.869 -4.766)" fill="#fbeb96"></path><path id="Trazado_41382" data-name="Trazado 41382" d="M82.165,60.589,62.691,80.062a16.188,16.188,0,0,1-3.653-1.225l21.9-21.9A16.245,16.245,0,0,1,82.165,60.589Z" transform="translate(-49.605 -47.503)" fill="#fbeb96"></path><path id="Trazado_41383" data-name="Trazado 41383" d="M23.931,2.61,4.7,21.837q-.127-.675-.2-1.369L22.561,2.411C23.024,2.457,23.482,2.523,23.931,2.61Z" transform="translate(-4.418 -2.324)" fill="#fbeb96"></path><path id="Trazado_41384" data-name="Trazado 41384" d="M52.717,38.541a12.257,12.257,0,0,1-11.438,12.23c-.271.018-.547.028-.823.028a12.259,12.259,0,0,1,0-24.519c.276,0,.552.01.823.028A12.26,12.26,0,0,1,52.717,38.541Z" transform="translate(-24.051 -22.103)" fill="#d86c0b"></path><path id="Trazado_41385" data-name="Trazado 41385" d="M54.807,41.181c0,.208,0,.417-.018.624A11.71,11.71,0,0,1,43.878,52.866l-.16.01c-.207.011-.415.018-.626.018a11.7,11.7,0,0,1-11.669-10.71q-.044-.5-.044-1c0-.311.011-.618.036-.922a11.55,11.55,0,0,1,.3-1.867A11.732,11.732,0,0,1,40.3,29.8a11.508,11.508,0,0,1,1.867-.3c.3-.025.611-.036.921-.036.264,0,.528.01.785.026.073,0,.147.01.22.018a11.619,11.619,0,0,1,4.844,1.519,11.692,11.692,0,0,1,5.866,10.152Z" transform="translate(-26.687 -24.743)" fill="#ffa70b"></path><path id="Trazado_41386" data-name="Trazado 41386" d="M42.614,29.763,31.857,40.52a11.547,11.547,0,0,1,.3-1.867l8.591-8.591A11.526,11.526,0,0,1,42.614,29.763Z" transform="translate(-27.083 -24.989)" fill="#ffbe16" style="mix-blend-mode: soft-light;isolation: isolate"></path><path id="Trazado_41387" data-name="Trazado 41387" d="M49.423,31.329l-16,16A11.622,11.622,0,0,1,31.9,42.485L44.58,29.811A11.619,11.619,0,0,1,49.423,31.329Z" transform="translate(-27.122 -25.029)" fill="#ffbe16" style="mix-blend-mode: soft-light;isolation: isolate"></path><path id="Trazado_41388" data-name="Trazado 41388" d="M93.914,80.106c0,.209,0,.417-.018.624L82.824,91.8c-.207.011-.415.018-.626.018a11.7,11.7,0,0,1-3.681-.59L93.324,76.424A11.716,11.716,0,0,1,93.914,80.106Z" transform="translate(-65.747 -63.653)" fill="#ffbe16" style="mix-blend-mode: soft-light;isolation: isolate"></path><path id="Trazado_41389" data-name="Trazado 41389" d="M1412.7,72.732l-.169,1.851-2.351-.213.161-1.767a9.848,9.848,0,0,1-4.179-1.557l1.527-2.752a8.042,8.042,0,0,0,3.755,1.416c1.117.1,1.539-.1,1.575-.5.133-1.467-6.426-.869-6.032-5.221.171-1.884,1.683-3.344,4.451-3.479l.164-1.817,2.351.213-.161,1.784a8.753,8.753,0,0,1,3.3,1.273l-1.443,2.744a7.22,7.22,0,0,0-3.172-1.161c-1.15-.105-1.547.195-1.584.6-.127,1.4,6.432.818,6.041,5.12-.163,1.8-1.605,3.25-4.23,3.466" transform="translate(-1395.165 -49.892)" fill="#d86c0b"></path><path id="Trazado_41390" data-name="Trazado 41390" d="M1412.687,72.183l-.169,1.851-2.351-.213.161-1.767a9.85,9.85,0,0,1-4.179-1.557l1.527-2.752a8.042,8.042,0,0,0,3.755,1.416c1.117.1,1.538-.1,1.575-.5.134-1.467-6.426-.869-6.032-5.221.171-1.884,1.681-3.344,4.451-3.479l.164-1.817,2.351.213-.161,1.784a8.758,8.758,0,0,1,3.3,1.273l-1.443,2.744A7.22,7.22,0,0,0,1412.46,63c-1.151-.105-1.548.195-1.583.6-.127,1.4,6.432.818,6.041,5.12-.163,1.8-1.606,3.25-4.231,3.466" transform="translate(-1395.167 -49.966)" fill="#ffd522"></path></g><g id="Grupo_29967" data-name="Grupo 29967" transform="translate(1129.279 718)"><path id="Trazado_41378-2" data-name="Trazado 41378" d="M17.354,8.921A13.411,13.411,0,0,0,4,22.389,13.081,13.081,0,0,0,17.468,35.348,13.078,13.078,0,0,0,30.822,22.275,13.411,13.411,0,0,0,17.354,8.921Z" transform="translate(-4 -7.941)" fill="#ffa81d"></path><path id="Trazado_41379-2" data-name="Trazado 41379" d="M30.54,12.572a13.241,13.241,0,0,0-1-2.979A13.487,13.487,0,0,0,24.581,3.98q-.293-.185-.6-.356a13.29,13.29,0,0,0-3-1.237c-.355-.1-.716-.182-1.081-.25s-.74-.125-1.117-.162a13.126,13.126,0,0,0-1.434-.07,13.585,13.585,0,0,0-1.5.089q-.554.064-1.094.173a13.422,13.422,0,0,0-10.5,10.5q-.11.54-.171,1.093A13.144,13.144,0,0,0,4,15.373c0,.446.025.887.07,1.323q.058.566.162,1.116t.251,1.08h0a13.259,13.259,0,0,0,1.236,3q.171.3.356.6a13.486,13.486,0,0,0,5.613,4.962,13.2,13.2,0,0,0,2.978,1,13.514,13.514,0,0,0,4.448.174,13.194,13.194,0,0,0,2.021-.417A13.44,13.44,0,0,0,30.3,19.041a13.258,13.258,0,0,0,.417-2.021,13.518,13.518,0,0,0-.174-4.448Z" transform="translate(-4 -1.906)" fill="#ffd522"></path><path id="Trazado_41380-2" data-name="Trazado 41380" d="M37.521,16.453,18.556,35.418a13.383,13.383,0,0,1-2.243-2.943L34.578,14.21A13.453,13.453,0,0,1,37.521,16.453Z" transform="translate(-14.593 -12.491)" fill="#ffb311"></path><path id="Trazado_41381-2" data-name="Trazado 41381" d="M27.559,6.95l-18.5,18.5q-.185-.293-.356-.6a13.259,13.259,0,0,1-1.236-3h0l16.5-16.5a13.29,13.29,0,0,1,3,1.237Q27.266,6.766,27.559,6.95Z" transform="translate(-6.978 -4.876)" fill="#fbeb96"></path><path id="Trazado_41382-2" data-name="Trazado 41382" d="M77.89,59.913,62.016,75.787a13.2,13.2,0,0,1-2.978-1L76.892,56.934A13.242,13.242,0,0,1,77.89,59.913Z" transform="translate(-51.349 -49.247)" fill="#fbeb96"></path><path id="Trazado_41383-2" data-name="Trazado 41383" d="M20.34,2.573,4.667,18.246q-.1-.55-.162-1.116L19.223,2.411C19.6,2.448,19.974,2.5,20.34,2.573Z" transform="translate(-4.434 -2.34)" fill="#fbeb96"></path><path id="Trazado_41384-2" data-name="Trazado 41384" d="M48.184,36.274a9.992,9.992,0,0,1-9.323,9.969c-.221.014-.446.023-.671.023a9.993,9.993,0,0,1,0-19.986c.225,0,.45.008.671.023A9.993,9.993,0,0,1,48.184,36.274Z" transform="translate(-24.817 -22.875)" fill="#d86c0b"></path><path id="Trazado_41385-2" data-name="Trazado 41385" d="M50.476,39.015c0,.17,0,.34-.015.509a9.545,9.545,0,0,1-8.895,9.017l-.13.008c-.169.009-.339.015-.51.015a9.536,9.536,0,0,1-9.512-8.73q-.036-.4-.036-.818c0-.254.009-.5.029-.752a9.416,9.416,0,0,1,.243-1.522,9.564,9.564,0,0,1,7-7,9.381,9.381,0,0,1,1.522-.243c.247-.02.5-.029.75-.029.215,0,.43.008.64.021.06,0,.12.008.179.015a9.471,9.471,0,0,1,3.948,1.238,9.531,9.531,0,0,1,4.781,8.276Z" transform="translate(-27.554 -25.616)" fill="#ffa70b"></path><path id="Trazado_41386-2" data-name="Trazado 41386" d="M40.625,29.763l-8.768,8.768a9.412,9.412,0,0,1,.243-1.522l7-7A9.4,9.4,0,0,1,40.625,29.763Z" transform="translate(-27.965 -25.871)" fill="#ffbe16" style="mix-blend-mode: soft-light;isolation: isolate"></path><path id="Trazado_41387-2" data-name="Trazado 41387" d="M46.185,31.049,33.141,44.092a9.473,9.473,0,0,1-1.236-3.95L42.237,29.811A9.471,9.471,0,0,1,46.185,31.049Z" transform="translate(-28.007 -25.913)" fill="#ffbe16" style="mix-blend-mode: soft-light;isolation: isolate"></path><path id="Trazado_41388-2" data-name="Trazado 41388" d="M91.068,79.426c0,.17,0,.34-.015.509l-9.025,9.025c-.169.009-.339.015-.51.015a9.536,9.536,0,0,1-3-.481L90.587,76.424A9.55,9.55,0,0,1,91.068,79.426Z" transform="translate(-68.108 -66.014)" fill="#ffbe16" style="mix-blend-mode: soft-light;isolation: isolate"></path><path id="Trazado_41389-2" data-name="Trazado 41389" d="M1411.489,70.138l-.137,1.509-1.916-.174.131-1.441a8.027,8.027,0,0,1-3.407-1.269l1.245-2.243a6.557,6.557,0,0,0,3.061,1.154c.91.082,1.254-.079,1.284-.4.109-1.2-5.238-.708-4.917-4.256.139-1.536,1.371-2.726,3.629-2.836l.134-1.481,1.916.174-.131,1.455a7.136,7.136,0,0,1,2.688,1.038l-1.177,2.237a5.885,5.885,0,0,0-2.586-.947c-.937-.086-1.262.159-1.291.486-.1,1.141,5.243.667,4.924,4.173-.133,1.468-1.309,2.65-3.448,2.825" transform="translate(-1397.197 -51.52)" fill="#d86c0b"></path><path id="Trazado_41390-2" data-name="Trazado 41390" d="M1411.479,69.589l-.138,1.509-1.916-.174.131-1.441a8.028,8.028,0,0,1-3.407-1.269l1.245-2.243a6.555,6.555,0,0,0,3.061,1.154c.91.082,1.254-.079,1.284-.4.109-1.2-5.238-.708-4.917-4.256.139-1.536,1.371-2.726,3.629-2.836l.134-1.481,1.916.174-.131,1.455a7.138,7.138,0,0,1,2.687,1.038l-1.176,2.237a5.885,5.885,0,0,0-2.586-.947c-.938-.086-1.261.159-1.291.486-.1,1.141,5.243.667,4.924,4.173-.133,1.468-1.309,2.65-3.449,2.825" transform="translate(-1397.197 -51.478)" fill="#ffd522"></path></g><g id="Grupo_29959" data-name="Grupo 29959" transform="translate(1148 831.75)"><path id="Trazado_41366" data-name="Trazado 41366" d="M25.193,8.921A21.284,21.284,0,0,0,4,30.3C4.05,42.05,13.62,50.911,25.374,50.861s21.243-8.993,21.193-20.747A21.284,21.284,0,0,0,25.193,8.921Z" transform="translate(-4 -7.366)" fill="#ffa81d"></path><path id="Trazado_41367" data-name="Trazado 41367" d="M46.12,18.834a21.014,21.014,0,0,0-1.583-4.728A21.4,21.4,0,0,0,36.662,5.2q-.465-.294-.946-.565a21.091,21.091,0,0,0-4.757-1.963c-.563-.156-1.136-.289-1.716-.4s-1.174-.2-1.773-.257a20.831,20.831,0,0,0-2.276-.112,21.56,21.56,0,0,0-2.373.141q-.879.1-1.737.274A21.3,21.3,0,0,0,4.415,18.989q-.174.857-.272,1.735A20.86,20.86,0,0,0,4,23.279c0,.708.04,1.408.112,2.1q.092.9.257,1.771t.4,1.714v0A21.042,21.042,0,0,0,6.73,33.619q.272.481.565.946A21.4,21.4,0,0,0,16.2,42.44a20.942,20.942,0,0,0,4.726,1.585,21.447,21.447,0,0,0,7.059.276,20.94,20.94,0,0,0,3.208-.662A21.329,21.329,0,0,0,45.734,29.1a21.041,21.041,0,0,0,.662-3.208,21.454,21.454,0,0,0-.276-7.059Z" transform="translate(-4 -1.906)" fill="#ffd522"></path><path id="Trazado_41368" data-name="Trazado 41368" d="M49.97,17.77l-30.1,30.1a21.239,21.239,0,0,1-3.56-4.671L45.3,14.21A21.351,21.351,0,0,1,49.97,17.77Z" transform="translate(-13.583 -11.482)" fill="#ffb311"></path><path id="Trazado_41369" data-name="Trazado 41369" d="M39.357,7.885,9.989,37.253q-.294-.465-.565-.946a21.042,21.042,0,0,1-1.962-4.755v0L33.653,5.358A21.092,21.092,0,0,1,38.41,7.321Q38.891,7.592,39.357,7.885Z" transform="translate(-6.694 -4.592)" fill="#fbeb96"></path><path id="Trazado_41370" data-name="Trazado 41370" d="M88.956,61.662,63.764,86.854a20.942,20.942,0,0,1-4.726-1.585L87.373,56.934A21.015,21.015,0,0,1,88.956,61.662Z" transform="translate(-46.836 -44.734)" fill="#fbeb96"></path><path id="Trazado_41371" data-name="Trazado 41371" d="M29.636,2.668,4.762,27.542q-.164-.873-.257-1.771L27.863,2.411C28.462,2.47,29.054,2.556,29.636,2.668Z" transform="translate(-4.393 -2.299)" fill="#fbeb96"></path><path id="Trazado_41372" data-name="Trazado 41372" d="M59.916,42.141a15.857,15.857,0,0,1-14.8,15.822c-.351.023-.708.036-1.065.036a15.859,15.859,0,0,1,0-31.718c.357,0,.714.013,1.065.036A15.86,15.86,0,0,1,59.916,42.141Z" transform="translate(-22.833 -20.876)" fill="#d86c0b"></path><path id="Trazado_41373" data-name="Trazado 41373" d="M61.687,44.621c0,.27-.006.539-.023.807a15.148,15.148,0,0,1-14.116,14.31l-.207.013c-.268.015-.537.023-.809.023a15.133,15.133,0,0,1-15.1-13.854q-.057-.642-.057-1.3c0-.4.015-.8.046-1.193a14.943,14.943,0,0,1,.386-2.416A15.178,15.178,0,0,1,42.925,29.9a14.887,14.887,0,0,1,2.415-.386c.392-.032.79-.046,1.191-.046.341,0,.683.013,1.016.034.095.006.19.013.285.023A15.031,15.031,0,0,1,54.1,31.487a15.126,15.126,0,0,1,7.588,13.134Z" transform="translate(-25.309 -23.356)" fill="#ffa70b"></path><path id="Trazado_41374" data-name="Trazado 41374" d="M45.773,29.763,31.857,43.679a14.937,14.937,0,0,1,.386-2.415L43.357,30.149A14.911,14.911,0,0,1,45.773,29.763Z" transform="translate(-25.681 -23.587)" fill="#ffbe16" style="mix-blend-mode: soft-light;isolation: isolate"></path><path id="Trazado_41375" data-name="Trazado 41375" d="M54.568,31.775l-20.7,20.7a15.034,15.034,0,0,1-1.962-6.268l16.4-16.4A15.03,15.03,0,0,1,54.568,31.775Z" transform="translate(-25.718 -23.624)" fill="#ffbe16" style="mix-blend-mode: soft-light;isolation: isolate"></path><path id="Trazado_41376" data-name="Trazado 41376" d="M1414.618,76.853l-.219,2.395-3.041-.276.208-2.286a12.742,12.742,0,0,1-5.407-2.014l1.976-3.56a10.4,10.4,0,0,0,4.857,1.832c1.445.13,1.99-.125,2.037-.642.173-1.9-8.313-1.124-7.8-6.754.221-2.437,2.177-4.327,5.759-4.5l.213-2.351,3.041.276-.208,2.308a11.321,11.321,0,0,1,4.265,1.647l-1.867,3.55a9.337,9.337,0,0,0-4.1-1.5c-1.488-.136-2,.252-2.049.771-.165,1.812,8.32,1.058,7.815,6.623-.211,2.33-2.077,4.2-5.473,4.483" transform="translate(-1391.936 -47.307)" fill="#d86c0b"></path><path id="Trazado_41377" data-name="Trazado 41377" d="M1414.607,76.3l-.219,2.395-3.041-.276.208-2.286a12.745,12.745,0,0,1-5.406-2.014l1.975-3.56a10.4,10.4,0,0,0,4.857,1.832c1.445.13,1.99-.125,2.037-.642.173-1.9-8.313-1.124-7.8-6.754.221-2.437,2.175-4.327,5.759-4.5l.213-2.351,3.041.276-.208,2.308a11.328,11.328,0,0,1,4.265,1.647l-1.867,3.55a9.338,9.338,0,0,0-4.1-1.5c-1.489-.136-2,.252-2.049.771-.164,1.812,8.32,1.058,7.815,6.623-.211,2.33-2.077,4.2-5.473,4.483" transform="translate(-1391.941 -47.563)" fill="#ffd522"></path></g><g id="Grupo_35103" data-name="Grupo 35103" transform="translate(997.791 584.49)"><path id="Trazado_47352" data-name="Trazado 47352" d="M107.18,342.447s-6.142-7.676-6.91-23.03c0,0-3.838-9.98-1.535-16.122,0,0,19.96-8.444,39.268,12.611C138,315.906,128.642,335.715,107.18,342.447Z" transform="translate(0 -5.194)" fill="#37f915"></path><path id="Trazado_47353" data-name="Trazado 47353" d="M106.3,307.8s3.481,18.8,11.336,24.754c0,0,10.28-10.173,14.825-10.554A37.428,37.428,0,0,0,106.3,307.8Z" transform="translate(-2.957 -7.395)" fill="#1dba22"></path><path id="Trazado_47354" data-name="Trazado 47354" d="M106.3,307.794s19.192-.767,26.868,12.283c0,0-5.374,3.838-7.677,4.606C125.491,324.683,120.117,311.633,106.3,307.794Z" transform="translate(-2.957 -7.39)" fill="#247f24"></path><path id="Trazado_47355" data-name="Trazado 47355" d="M269.683,325.688s31.475,8.444,43.758,39.617c0,0,11.515,36.383,1.535,65.521,0,0-2,8.649-8.445,10.782-6.909,2.285-16.121,2.425-34.545,1.535C271.986,443.143,299.623,350.829,269.683,325.688Z" transform="translate(-61.169 -13.769)" fill="#30e127"></path><path id="Trazado_47356" data-name="Trazado 47356" d="M108.684,417.517s17.466,23.911,30.169,26.781c0,0,11.115,4.782,30.963,2.869,0,0,27.787-2.869,31.757-8.608v37.3H160.289S141.235,473.948,108.684,417.517Z" transform="translate(-3.807 -46.487)" fill="#1dba22"></path><path id="Trazado_47357" data-name="Trazado 47357" d="M98.764,303.934s-2.3,6.142,1.535,16.122c0,0-.767,10.747,6.91,23.03l1.535-.767s-6.909-7.677-7.677-22.263c0,0-3.838-11.784-.768-16.64Z" transform="translate(-0.028 -5.834)" fill="#20dc31"></path><path id="Trazado_47358" data-name="Trazado 47358" d="M154.8,486.687s7.677,10.567,15.353,13.819l-37.616-.768Z" transform="translate(-12.305 -71.131)" fill="#1d931d"></path><path id="Trazado_47359" data-name="Trazado 47359" d="M299.594,441.369s-4.606,21.495-8.444,29.172c0,0,5.374-1.535,21.149-11.515,0,0,5.719-3.07,8.79.768C321.09,459.793,316.483,441.369,299.594,441.369Z" transform="translate(-68.817 -54.985)" fill="#36d82a"></path><path id="Trazado_47360" data-name="Trazado 47360" d="M117.865,431.96c-4.516-4.969-10.4-12.923-16.337-25.176,0,0,0,46.415,21.535,66.02,0,0,2.794-3.137,4.454-4.9,0,0,5.311,4.444,6.552,4.9,0,0,8.913-7.676,9.681-14.586,0,0,1.233.957-7.677-6.909,0,0-4.606-3.838-13.819-13.819Z" transform="translate(-1.257 -42.663)" fill="#30e127"></path><path id="Trazado_47361" data-name="Trazado 47361" d="M149.275,485.837c-.768,6.91-9.682,14.586-9.682,14.586-1.242-.452-6.553-4.848-6.553-4.848-1.66,1.746-4.455,4.848-4.455,4.848A53.1,53.1,0,0,1,117.032,484.3s4.128,5.616,16.751,5.616c0,0,10.118-.243,15.492-4.081Z" transform="translate(-6.781 -70.281)" fill="#2ee829"></path><path id="Trazado_47362" data-name="Trazado 47362" d="M118.721,327.966c9.455-8.85,22.726-11.71,22.726-11.71a180.6,180.6,0,0,1,52.97-6.142s17.273,5.758,29.556,24.182c0,0,3.07,5.374,3.07,6.909,0,0,3.071,16.889-3.838,23.8s-5.757,43.374-54.5,48.364c0,0-24.95,1.92-41.071-6.525,0,0-24.988-13.215-26.1-35.313C101.528,371.529,102.52,343.13,118.721,327.966Z" transform="translate(-1.257 -8.176)" fill="#1eeb00"></path><path id="Trazado_47363" data-name="Trazado 47363" d="M178.571,357.888s6.142,3.838,3.52,10.44c-1.827,4.6-12.475,15.661-23.39,15.661-7.8,0-23.119-12.993-15.594-21.925,0,0,7.8,15.66,15.594,15.66C168.057,377.725,175.9,359.1,178.571,357.888Z" transform="translate(-15.35 -25.241)" fill="#36d82a"></path><path id="Trazado_47364" data-name="Trazado 47364" d="M142.773,369.849s14.923,23.988,34.821-1.6c0,0,9.949-12.794-6.633-12.794,0,0-14.924,0-21.557,1.6C149.405,357.055,137.8,360.254,142.773,369.849Z" transform="translate(-15.511 -24.375)" fill="#37f915"></path><ellipse id="Elipse_4761" data-name="Elipse 4761" cx="4.582" cy="3.591" rx="4.582" ry="3.591" transform="matrix(0.064, -0.998, 0.998, 0.064, 134.526, 344.95)" fill="#1dba22"></ellipse><path id="Trazado_47365" data-name="Trazado 47365" d="M174.32,365.71c.014-.2.037-.4.07-.6.44-2.712,2.463-4.64,4.519-4.306s3.365,2.8,2.924,5.515-2.464,4.639-4.52,4.306c-1.9-.309-3.164-2.445-2.995-4.91" transform="translate(-27.187 -26.266)" fill="#1dba22"></path><path id="Trazado_47366" data-name="Trazado 47366" d="M137.892,342.644c.745,1.329.671,2.824-1.132,4.626s-4.136,2.389-5.213,1.312c0,0-1.118-.9-.351-2.927h0l3.616-3.883S136.912,340.9,137.892,342.644Z" transform="translate(-11.732 -19.421)" fill="#3bc130"></path><ellipse id="Elipse_4762" data-name="Elipse 4762" cx="3.648" cy="2.255" rx="3.648" ry="2.255" transform="matrix(0.673, -0.74, 0.74, 0.673, 118.261, 326.548)" fill="#37f915"></ellipse><path id="Trazado_47367" data-name="Trazado 47367" d="M223.905,339.424h0a4.473,4.473,0,0,0-2.8.381c-1.6,1-1.827,3.507-.516,5.6s3.668,2.982,5.264,1.983a3.3,3.3,0,0,0,1.469-4.561S225.976,339.789,223.905,339.424Z" transform="translate(-43.373 -18.625)" fill="#3bc130"></path><ellipse id="Elipse_4763" data-name="Elipse 4763" cx="3.08" cy="3.934" rx="3.08" ry="3.934" transform="matrix(0.778, -0.628, 0.628, 0.778, 175.948, 323.252)" fill="#37f915"></ellipse><path id="Trazado_47368" data-name="Trazado 47368" d="M244.639,308.278s16.121-3.07,29.172,17.656c0,0,14.586-21.495,12.283-31.475,0,0-.767-2.3-4.606-2.3,0,0-16.889-3.071-32.243,12.283C249.245,304.44,245.406,306.743,244.639,308.278Z" transform="translate(-52.246 -1.733)" fill="#1b871b"></path><path id="Trazado_47369" data-name="Trazado 47369" d="M292.535,309.609s4.6-11.343,3.07-16.121c0,0-6.141,1.535-19.96,18.424l6.909,13.819Z" transform="translate(-63.294 -2.296)" fill="#247f24"></path><path id="Trazado_47370" data-name="Trazado 47370" d="M242.254,318.008s14.586-3.838,29.172,17.657c0,0-3.838-12.283-7.677-15.354C263.749,320.311,249.163,314.937,242.254,318.008Z" transform="translate(-51.396 -10.695)" fill="#1dba22"></path><path id="Trazado_47371" data-name="Trazado 47371" d="M236.565,474.761s-4.606,7.961,1.535,21.5h24.566Z" transform="translate(-48.779 -66.882)" fill="#19741d"></path><path id="Trazado_47372" data-name="Trazado 47372" d="M274.56,355.5s9.212,6.909,9.98,24.565c0,0,1.535,15.354-7.677,42.223,0,0-7.677,28.4-15.354,31.475a23.2,23.2,0,0,1-6.909-4.606,15.555,15.555,0,0,1-6.91,3.838s-9.979-6.909-11.515-14.586c0,0-3.838-7.677,21.495-37.616C257.671,400.8,278.4,370.856,274.56,355.5Z" transform="translate(-49.157 -24.392)" fill="#37f915"></path><path id="Trazado_47373" data-name="Trazado 47373" d="M287.572,348.347s12.283,9.98,14.586,22.263C302.158,370.61,302.926,353.721,287.572,348.347Z" transform="translate(-67.543 -21.842)" fill="#20dc31"></path><path id="Trazado_47374" data-name="Trazado 47374" d="M241.982,305.01s13.051-20.727,42.99-17.657c0,0,8.445.768,2.3,15.354,0,0-7.677,24.566-10.747,26.869,0,0-7.677-3.071-6.142-6.142a209.561,209.561,0,0,0,11.3-23.031s2.9-5.757-.169-8.061c0,0-17.657-5.374-33.01,13.051C248.507,305.394,239.3,310,241.982,305.01Z" transform="translate(-51.124)" fill="#37f915"></path><path id="Trazado_47375" data-name="Trazado 47375" d="M162.35,317.586s20.727-3.07,41.455-1.535c0,0,4.606-6.142,8.444-8.445v-4.658s-6.141,3.891-8.444,8.5c0,0-31.475-.25-41.455,1.41Z" transform="translate(-22.927 -5.667)" fill="#85abc7"></path><path id="Trazado_47376" data-name="Trazado 47376" d="M162.35,312.75s9.212-6.784,13.819-8.319c0,0,12.215-2.556,36.081-1.535,0,0-6.141,5.374-8.444,8.444C203.8,311.34,192.29,311.34,162.35,312.75Z" transform="translate(-22.927 -5.562)" fill="#e4e1e6"></path><path id="Trazado_47377" data-name="Trazado 47377" d="M182.71,310.322s12.214-1.142,22.225-.989a9.135,9.135,0,0,1,3.239-2.537,195.263,195.263,0,0,0-19.938.879A22.834,22.834,0,0,0,182.71,310.322Z" transform="translate(-30.181 -7.036)" fill="#bbbed0"></path><path id="Trazado_47378" data-name="Trazado 47378" d="M158.757,363.471s2.391-1.629,4.271,1.537c0,0,1.113,2.4.345,3.932a7.753,7.753,0,0,0-1.535-3.838A3.515,3.515,0,0,0,158.757,363.471Z" transform="translate(-21.647 -27.081)" fill="#1e7512"></path><path id="Trazado_47379" data-name="Trazado 47379" d="M178.3,361.038s4.132-.551,4.977,4.736c0,0,.686-2.971-1.459-4.693a2.74,2.74,0,0,0-3.614-.043" transform="translate(-28.576 -26.131)" fill="#1e7512"></path><path id="Trazado_47380" data-name="Trazado 47380" d="M174.276,486.687" transform="translate(-27.176 -71.131)" fill="#3add31"></path><path id="Trazado_47381" data-name="Trazado 47381" d="M236.876,470.937s6.119,9.98,14.377,11.515c0,0,3.753,2.3,15.766-6.909,0,0,4.5-3.07,9.009-11.515,0,0-6.909,26.869-14.586,28.4,0,0-4.606-1.535-6.909-4.606,0,0-3.838,3.838-6.91,3.838C247.623,491.664,231.5,480.149,236.876,470.937Z" transform="translate(-49.09 -63.058)" fill="#61ff40"></path><path id="Trazado_47382" data-name="Trazado 47382" d="M192.784,506.961" transform="translate(-33.771 -78.355)" fill="none" stroke="#000" stroke-miterlimit="10" stroke-width="1"></path><path id="Trazado_47383" data-name="Trazado 47383" d="M130.747,452.7" transform="translate(-11.668 -59.022)" fill="none" stroke="#000" stroke-miterlimit="10" stroke-width="1"></path><path id="Trazado_47384" data-name="Trazado 47384" d="M308.29,296.311s1.4,5.6-7.612,28.122a26.687,26.687,0,0,1-5.374,8.445l-1.113-.5A126.722,126.722,0,0,0,308.29,296.311Z" transform="translate(-69.901 -3.302)" fill="#20dc31"></path><path id="Trazado_47385" data-name="Trazado 47385" d="M368,510.989" transform="translate(-96.198 -79.79)" fill="#d6d9ea"></path></g></g></svg>