<svg xmlns="http://www.w3.org/2000/svg" xmlns:xlink="http://www.w3.org/1999/xlink" width="409" height="337" viewBox="0 0 409 337"><defs><clipPath id="clip-path"><rect id="Rect&#xE1;ngulo_20379" data-name="Rect&#xE1;ngulo 20379" width="409" height="337" transform="translate(849 677)" fill="#fff" stroke="#707070" stroke-width="1"></rect></clipPath><linearGradient id="linear-gradient" x1="0.5" y1="0.328" x2="0.5" y2="0.942" gradientUnits="objectBoundingBox"><stop offset="0.279" stop-color="#1eeb00"></stop><stop offset="0.506" stop-color="#1ee700"></stop><stop offset="0.729" stop-color="#1edb00"></stop><stop offset="0.95" stop-color="#1ec700"></stop><stop offset="1" stop-color="#1ec200"></stop></linearGradient><filter id="Elipse_4274" x="196.121" y="-22.353" width="96.351" height="96.351" filterUnits="userSpaceOnUse"><feGaussianBlur stdDeviation="7.5"></feGaussianBlur></filter><filter id="Elipse_4273" x="87.504" y="93.364" width="78.55" height="78.55" filterUnits="userSpaceOnUse"><feGaussianBlur stdDeviation="7.5"></feGaussianBlur></filter><filter id="Elipse_4276" x="125.054" y="22.219" width="82.675" height="82.676" filterUnits="userSpaceOnUse"><feGaussianBlur stdDeviation="7.5"></feGaussianBlur></filter><linearGradient id="linear-gradient-2" x1="0.5" x2="0.5" y2="1.029" gradientUnits="objectBoundingBox"><stop offset="0" stop-color="#fff3f6"></stop><stop offset="1" stop-color="#ffd5df"></stop></linearGradient><filter id="Elipse_4280" x="59.056" y="47.854" width="63.353" height="63.353" filterUnits="userSpaceOnUse"><feGaussianBlur stdDeviation="3"></feGaussianBlur></filter></defs><g id="Haz_crecer_tu_marrano" data-name="Haz crecer tu marrano" transform="translate(-849 -677)" clip-path="url(#clip-path)"><path id="blob2" d="M326.433,198.636c11.668-62.025-49.13-121.9-108.7-159.362s-117.3-52.2-159.978-26.1c-42.681,26.407-69.7,93.652-52.507,163.046,17.2,69.7,78.608,141.245,151.688,144.93S314.458,260.661,326.433,198.636Z" transform="matrix(-0.799, 0.602, -0.602, -0.799, 1295.233, 904)" fill="#e9cffd"></path><path id="blob2-2" data-name="blob2" d="M298.941,112.008c10.686,56.636-44.992,111.309-99.545,145.515S91.978,305.187,52.891,281.355C13.8,257.243-10.941,195.84,4.806,132.476,20.553,68.83,76.793,3.5,143.719.138S287.974,55.372,298.941,112.008Z" transform="translate(1183.718 970.586) rotate(170)" fill="none" stroke="#b763f5" stroke-width="3"></path><g id="Personaje_Masculino" data-name="Personaje Masculino" transform="translate(1030.229 752.883)"><ellipse id="Elipse_1947" data-name="Elipse 1947" cx="91.292" cy="4.823" rx="91.292" ry="4.823" transform="translate(16.834 244.639)" opacity="0.18"></ellipse><g id="Grupo_16071" data-name="Grupo 16071" transform="translate(0 0)"><path id="Trazado_27254" data-name="Trazado 27254" d="M665.386,692.021l-9.435,7.173-2.1-2.125c-.3-.308-6.766-6.9-9.193-14.221a132.63,132.63,0,0,1-61.4,0c-2.429,7.321-8.889,13.913-9.195,14.221l-2.1,2.125-9.435-7.173-12.053,7.637-1.608-3.594c-.213-.478-21.405-48.551-21.405-108.706,0-17.876,3.394-39.749,10.089-65.045-10.189-10.247-13.68-22.116-17.368-34.649-.576-1.964-1.162-3.955-1.782-5.969a160.043,160.043,0,0,0-6.1-16.483l-1.554-3.459,3.605-1.176a62.49,62.49,0,0,1,19.371-3.2,56.815,56.815,0,0,1,38.544,15.208,128.511,128.511,0,0,1,83.373,0,56.806,56.806,0,0,1,38.544-15.208,62.489,62.489,0,0,1,19.371,3.2l3.605,1.176-1.554,3.459a160.237,160.237,0,0,0-6.093,16.483c-.621,2.014-1.206,4.005-1.784,5.969-3.687,12.531-7.179,24.4-17.363,34.646,6.692,25.042,10.084,46.917,10.084,65.049,0,60.154-21.192,108.227-21.405,108.706l-1.608,3.594Z" transform="translate(-506.078 -453.187)" fill="url(#linear-gradient)"></path><path id="Trazado_27255" data-name="Trazado 27255" d="M579.934,528.909c7.46,0,22.061-8.461,27.811-21.279,5.732-12.779-6.688-16.786-11.644-17.692-5.936-1.084-16.168-1.18-16.168-1.18s-10.232.1-16.168,1.18c-4.954.906-17.376,4.913-11.642,17.692C557.875,520.448,572.476,528.909,579.934,528.909Z" transform="translate(-472.064 -426.435)" fill="#afff6a"></path><g id="Grupo_16070" data-name="Grupo 16070" transform="translate(0 0)"><g id="Grupo_16069" data-name="Grupo 16069"><path id="Trazado_27256" data-name="Trazado 27256" d="M716.757,458.48a65.941,65.941,0,0,0-20.427-3.362A60.428,60.428,0,0,0,657,469.86a132.242,132.242,0,0,0-81.8,0,60.452,60.452,0,0,0-39.329-14.743,65.886,65.886,0,0,0-20.427,3.362l-7.214,2.353,3.114,6.919a157.034,157.034,0,0,1,5.943,16.086c.613,1.988,1.2,3.989,1.771,5.925,3.65,12.411,7.116,24.189,16.857,34.677-6.449,24.8-9.715,46.332-9.715,64.059,0,60.877,20.814,108.117,21.7,110.1l3.214,7.186,6.649-4.213,6.729-4.263,5.173,3.931,4.757,3.618,4.206-4.25a48.676,48.676,0,0,0,8.863-12.653,135.965,135.965,0,0,0,57.216,0,48.769,48.769,0,0,0,8.863,12.653l4.206,4.25,4.759-3.618,5.171-3.931,6.731,4.263,6.649,4.213L684.3,698.6c.885-1.98,21.7-49.22,21.7-110.1,0-17.974-3.264-39.512-9.708-64.069,9.734-10.482,13.2-22.259,16.848-34.664.571-1.938,1.16-3.94,1.771-5.928a157.215,157.215,0,0,1,5.947-16.09l3.105-6.916Zm-14.026,31.58c-2.861,10.363-5.2,18.78-12.27,26.62-3.992-14.052-7.762-24.693-9.137-28.454,1.3-2.212,5.36-7.72,15.636-12.557l-2.9-6.164c-15.958,7.512-19.5,16.974-19.645,17.372l-.422,1.18.441,1.173c.215.565,21.351,57.094,21.351,100.08,0,49.233-14.524,90.137-19.308,102.268l-9.3-5.893-8.316,6.323a32.9,32.9,0,0,1-5.452-8.978c2.874-.841,5.732-1.747,8.561-2.783l-2.345-6.4a126.241,126.241,0,0,1-87.047,0l-2.344,6.4c2.829,1.036,5.688,1.942,8.561,2.783a32.948,32.948,0,0,1-5.452,8.978l-8.316-6.323-9.3,5.893c-4.784-12.118-19.306-52.973-19.306-102.268,0-42.986,21.136-99.515,21.351-100.08l.441-1.173-.422-1.18c-.143-.4-3.687-9.86-19.645-17.372l-2.9,6.164c10.3,4.848,14.358,10.373,15.636,12.551-1.373,3.759-5.145,14.4-9.137,28.462-7.073-7.842-9.411-16.258-12.27-26.622-.748-2.707-1.521-5.508-2.418-8.418-1.749-5.68-3.615-10.571-4.876-13.685,29.924-7.829,48.022,11.916,48.8,12.787l1.551,1.751,2.19-.819a121.4,121.4,0,0,1,82.77,0l2.19.819,1.551-1.751a50.277,50.277,0,0,1,48.8-12.785c-1.262,3.114-3.125,8-4.874,13.683C704.25,484.551,703.479,487.352,702.731,490.059Z" transform="translate(-508.228 -455.117)" fill="#004b40"></path><path id="Trazado_27257" data-name="Trazado 27257" d="M566.959,531.558l-6.755.887c1.645,12.518,2.468,22.111,2.853,27.5l-9.415-3.007-6.971,7.475c-2.751-4.987-7.755-14.493-13.5-27.42l-6.225,2.764a321.183,321.183,0,0,0,16.129,32.124l2.327,3.876,10.275-11.016,14.686,4.689-.2-4.869C570.142,564.049,569.6,551.687,566.959,531.558Z" transform="translate(-492.265 -389.943)" fill="#004b40"></path><path id="Trazado_27258" data-name="Trazado 27258" d="M547.786,497.516a7.495,7.495,0,1,0-7.5-7.494A7.494,7.494,0,0,0,547.786,497.516Z" transform="translate(-480.891 -431.747)" fill="#004b40"></path><path id="Trazado_27259" data-name="Trazado 27259" d="M592.023,497.516a7.495,7.495,0,1,0-7.5-7.494A7.5,7.5,0,0,0,592.023,497.516Z" transform="translate(-443.174 -431.747)" fill="#004b40"></path><path id="Trazado_27260" data-name="Trazado 27260" d="M612.769,497.155c-3.34-6.347-11.242-8.409-14.482-9-6.153-1.123-16.318-1.232-16.812-1.236-.43,0-10.6.113-16.748,1.236-3.242.591-11.143,2.653-14.482,9-2.036,3.87-1.919,8.39.343,13.435,6.475,14.43,22.37,23.291,30.918,23.291s24.444-8.861,30.919-23.291C614.688,505.545,614.8,501.025,612.769,497.155Zm-6.56,10.647c-5.362,11.953-19.041,19.267-24.7,19.267s-19.341-7.314-24.7-19.267c-1.364-3.038-1.541-5.552-.53-7.475,1.59-3.022,6.041-4.808,9.676-5.471,5.576-1.019,15.49-1.124,15.525-1.124.1,0,10.013.106,15.588,1.124,3.637.663,8.088,2.449,9.678,5.471C607.75,502.249,607.573,504.763,606.209,507.8Z" transform="translate(-473.635 -428.002)" fill="#004b40"></path><path id="Trazado_27261" data-name="Trazado 27261" d="M599.3,556.943l-9.415,3.007c.383-5.393,1.208-14.986,2.853-27.5l-6.755-.887c-2.646,20.129-3.183,32.491-3.2,33.008l-.2,4.869,14.686-4.689,10.275,11.016,2.327-3.876A321.153,321.153,0,0,0,626,539.761L619.771,537c-5.739,12.927-10.743,22.433-13.495,27.42Z" transform="translate(-444.833 -389.943)" fill="#004b40"></path><path id="Trazado_27262" data-name="Trazado 27262" d="M573.633,492.763a5.24,5.24,0,0,0-5.224,5.224v3.044a5.224,5.224,0,1,0,10.449,0v-3.044A5.24,5.24,0,0,0,573.633,492.763Z" transform="translate(-456.917 -423.02)" fill="#004b40"></path><path id="Trazado_27263" data-name="Trazado 27263" d="M564.086,492.763a5.24,5.24,0,0,0-5.224,5.224v3.044a5.224,5.224,0,1,0,10.449,0v-3.044A5.24,5.24,0,0,0,564.086,492.763Z" transform="translate(-465.057 -423.02)" fill="#004b40"></path></g></g></g></g><g id="Grupo_23880" data-name="Grupo 23880" transform="translate(1067.621 677.146)"><g transform="matrix(1, 0, 0, 1, -218.62, -0.15)" filter="url(#Elipse_4274)"><ellipse id="Elipse_4274-2" data-name="Elipse 4274" cx="21.343" cy="21.343" rx="21.343" ry="21.343" transform="matrix(0.23, -0.97, 0.97, 0.23, 218.62, 41.69)" fill="#fff"></ellipse></g><g id="Grupo_23879" data-name="Grupo 23879" transform="translate(0 0)"><ellipse id="Elipse_184" data-name="Elipse 184" cx="21.343" cy="21.343" rx="21.343" ry="21.343" transform="matrix(0.23, -0.973, 0.973, 0.23, 0, 41.544)" fill="#004b40"></ellipse><g id="Grupo_1346" data-name="Grupo 1346" transform="translate(17.856 13.237)"><path id="Trazado_2186" data-name="Trazado 2186" d="M2498.942,3272.859a6.138,6.138,0,0,1-1.793-1v12.868a6.143,6.143,0,0,0,1.793,1Z" transform="translate(-2496.2 -3270.433)" fill="#231f20" opacity="0.1"></path><path id="Trazado_2187" data-name="Trazado 2187" d="M2497.041,3295.5h-.159a.834.834,0,0,1-.844-.844v-23.628a.833.833,0,0,1,.844-.844h.159a.832.832,0,0,1,.843.844v23.628A.833.833,0,0,1,2497.041,3295.5Z" transform="translate(-2496.038 -3270.189)" fill="#fbb040"></path><path id="Trazado_2188" data-name="Trazado 2188" d="M2496.987,3270.189h-.106a.833.833,0,0,0-.844.844v23.628a.834.834,0,0,0,.844.844h.106Z" transform="translate(-2496.038 -3270.189)" fill="#f78c00"></path></g><path id="Trazado_2189" data-name="Trazado 2189" d="M2516.434,3275.074v9.651a7.159,7.159,0,0,0-2.8-1.294c-5.051-.985-10.557,1.784-15.607-.56-.151-.068.152,2.537,0,2.454v9.579a.844.844,0,0,1-.844.844h-.158l8.416,8.416a21.343,21.343,0,0,0,19.9-21.293,21.64,21.64,0,0,0-.114-2.219l-8.8-8.8Z" transform="translate(-2478.326 -3257.196)" opacity="0.24"></path><g id="Grupo_1347" data-name="Grupo 1347" transform="translate(19.702 14.661)"><rect id="Rect&#xE1;ngulo_1575" data-name="Rect&#xE1;ngulo 1575" width="18.504" height="12.336" transform="translate(0 0)" fill="#f2f2f2"></rect><rect id="Rect&#xE1;ngulo_1576" data-name="Rect&#xE1;ngulo 1576" width="3.084" height="3.084" transform="translate(0 0)" fill="#070707"></rect><rect id="Rect&#xE1;ngulo_1577" data-name="Rect&#xE1;ngulo 1577" width="3.084" height="3.084" transform="translate(0 6.168)" fill="#070707"></rect><rect id="Rect&#xE1;ngulo_1578" data-name="Rect&#xE1;ngulo 1578" width="3.084" height="3.084" transform="translate(3.084 3.084)" fill="#070707"></rect><rect id="Rect&#xE1;ngulo_1579" data-name="Rect&#xE1;ngulo 1579" width="3.084" height="3.084" transform="translate(3.084 9.252)" fill="#070707"></rect><rect id="Rect&#xE1;ngulo_1580" data-name="Rect&#xE1;ngulo 1580" width="3.084" height="3.084" transform="translate(6.168 0)" fill="#070707"></rect><rect id="Rect&#xE1;ngulo_1581" data-name="Rect&#xE1;ngulo 1581" width="3.084" height="3.084" transform="translate(6.168 6.168)" fill="#070707"></rect><rect id="Rect&#xE1;ngulo_1582" data-name="Rect&#xE1;ngulo 1582" width="3.084" height="3.084" transform="translate(9.252 3.084)" fill="#070707"></rect><rect id="Rect&#xE1;ngulo_1583" data-name="Rect&#xE1;ngulo 1583" width="3.084" height="3.084" transform="translate(9.252 9.252)" fill="#070707"></rect><rect id="Rect&#xE1;ngulo_1584" data-name="Rect&#xE1;ngulo 1584" width="3.084" height="3.084" transform="translate(12.336 0)" fill="#070707"></rect><rect id="Rect&#xE1;ngulo_1585" data-name="Rect&#xE1;ngulo 1585" width="3.084" height="3.084" transform="translate(12.336 6.168)" fill="#070707"></rect><rect id="Rect&#xE1;ngulo_1586" data-name="Rect&#xE1;ngulo 1586" width="3.084" height="3.084" transform="translate(15.42 3.084)" fill="#070707"></rect><rect id="Rect&#xE1;ngulo_1587" data-name="Rect&#xE1;ngulo 1587" width="3.084" height="3.084" transform="translate(15.42 9.252)" fill="#070707"></rect></g></g></g><g id="Grupo_23878" data-name="Grupo 23878" transform="translate(959.004 792.863)"><g transform="matrix(1, 0, 0, 1, -110, -115.86)" filter="url(#Elipse_4273)"><ellipse id="Elipse_4273-2" data-name="Elipse 4273" cx="16.775" cy="16.775" rx="16.775" ry="16.775" transform="translate(110 115.86)" fill="#fff"></ellipse></g><g id="Grupo_23877" data-name="Grupo 23877" transform="translate(0 0.001)"><ellipse id="Elipse_674" data-name="Elipse 674" cx="16.775" cy="16.775" rx="16.775" ry="16.775" fill="#004b40"></ellipse><path id="Trazado_10347" data-name="Trazado 10347" d="M511.637,608.473A16.782,16.782,0,0,0,527.9,595.841l-7.871-7.871-.4.333-3.161-3.161-2.682,3.292-3.164-3.164-.991,1.59,3,3-9.37,1.841,7.054,7.054-6.122,2.265Z" transform="translate(-494.862 -574.923)" opacity="0.24"></path><path id="Trazado_10348" data-name="Trazado 10348" d="M513.258,587.465c0,1.544-1.252,1.892-2.8,1.892a2.8,2.8,0,1,1,0-5.591C512.006,583.766,513.258,585.921,513.258,587.465Z" transform="translate(-496.483 -574.418)" fill="#f1543f"></path><path id="Trazado_10349" data-name="Trazado 10349" d="M516.5,587.465c0,1.544,1.251,1.892,2.8,1.892a2.8,2.8,0,1,0,0-5.591C517.751,583.766,516.5,585.921,516.5,587.465Z" transform="translate(-499.725 -574.418)" fill="#c1321f"></path><rect id="Rect&#xE1;ngulo_5179" data-name="Rect&#xE1;ngulo 5179" width="14.911" height="11.183" transform="translate(9.319 14.911)" fill="#7fff5d"></rect><rect id="Rect&#xE1;ngulo_5181" data-name="Rect&#xE1;ngulo 5181" width="7.456" height="11.183" transform="translate(16.774 14.911)" fill="#7fff5d"></rect><rect id="Rect&#xE1;ngulo_5178" data-name="Rect&#xE1;ngulo 5178" width="16.775" height="3.728" transform="translate(8.387 13.048)" fill="#1eea00"></rect><rect id="Rect&#xE1;ngulo_5182" data-name="Rect&#xE1;ngulo 5182" width="8.387" height="3.728" transform="translate(16.774 13.048)" fill="#1eea00"></rect><rect id="Rect&#xE1;ngulo_5180" data-name="Rect&#xE1;ngulo 5180" width="3.728" height="13.047" transform="translate(14.911 13.048)" fill="#fc6f58"></rect><rect id="Rect&#xE1;ngulo_5183" data-name="Rect&#xE1;ngulo 5183" width="1.864" height="13.047" transform="translate(16.774 13.048)" fill="#f1543f"></rect></g></g><g id="Grupo_23884" data-name="Grupo 23884" transform="translate(996.554 721.719)"><g transform="matrix(1, 0, 0, 1, -147.55, -44.72)" filter="url(#Elipse_4276)"><ellipse id="Elipse_4276-2" data-name="Elipse 4276" cx="18.838" cy="18.838" rx="18.838" ry="18.838" transform="translate(147.55 44.72)" fill="#fff"></ellipse></g><g id="Grupo_23883" data-name="Grupo 23883" transform="translate(0 0)"><ellipse id="Elipse_673" data-name="Elipse 673" cx="18.838" cy="18.838" rx="18.838" ry="18.838" fill="#004b40"></ellipse><path id="Trazado_10334" data-name="Trazado 10334" d="M36.139,777.494l9.258,9.259A18.854,18.854,0,0,0,59.042,770.61L48.553,760.121l-.34.571-2.677-2.677-3.929,1.126-3.11.343H33.129l-1.269,1.269,1.269,5.779,7.9,7.9v1.87Z" transform="translate(-21.472 -749.773)" opacity="0.24"></path><path id="Trazado_10335" data-name="Trazado 10335" d="M38.933,767.593H34.558A2.1,2.1,0,0,1,32.519,766l-.913-3.652a2.1,2.1,0,0,1,2.04-2.612h5.287v7.856Zm-5.287-6.968a1.214,1.214,0,0,0-1.179,1.509l.913,3.651a1.213,1.213,0,0,0,1.179.92h3.487v-6.08Z" transform="translate(-21.394 -750.196)" fill="#fbb040"></path><path id="Trazado_10336" data-name="Trazado 10336" d="M49.172,767.593H44.8v-7.856h5.288a2.1,2.1,0,0,1,2.04,2.612L51.212,766A2.1,2.1,0,0,1,49.172,767.593Zm-3.487-.888h3.487a1.213,1.213,0,0,0,1.179-.92l.913-3.651a1.214,1.214,0,0,0-1.179-1.509h-4.4v6.08Z" transform="translate(-24.661 -750.196)" fill="#f78c00"></path><rect id="Rect&#xE1;ngulo_5176" data-name="Rect&#xE1;ngulo 5176" width="3.062" height="5.226" transform="translate(17.306 20.437)" fill="#f78c00"></rect><rect id="Rect&#xE1;ngulo_5177" data-name="Rect&#xE1;ngulo 5177" width="1.531" height="5.226" transform="translate(18.837 20.437)" fill="#fbb040"></rect><path id="Trazado_10337" data-name="Trazado 10337" d="M41.364,771.952h0a3.946,3.946,0,0,1-3.916-3.457l-1.31-10.479H46.591l-1.31,10.479A3.946,3.946,0,0,1,41.364,771.952Z" transform="translate(-22.527 -749.773)" fill="#fbb040"></path><path id="Trazado_10338" data-name="Trazado 10338" d="M43.074,758.015v13.936a3.946,3.946,0,0,0,3.916-3.457l1.31-10.479Z" transform="translate(-24.236 -749.773)" fill="#f78c00"></path><path id="Trazado_10339" data-name="Trazado 10339" d="M46.591,758.015H36.138l.282,2.252h9.889Z" transform="translate(-22.527 -749.773)" fill="#b5b5b5"></path><path id="Trazado_10340" data-name="Trazado 10340" d="M48.3,758.015H43.074v2.252h4.945Z" transform="translate(-24.236 -749.773)" fill="#7f7f7f"></path><path id="Trazado_10341" data-name="Trazado 10341" d="M45.881,782.726H37.54a3.484,3.484,0,0,1,3.484-3.484H42.4a3.485,3.485,0,0,1,3.484,3.484Z" transform="translate(-22.873 -755.004)" fill="#fbb040"></path><path id="Trazado_10342" data-name="Trazado 10342" d="M47.245,782.726a3.485,3.485,0,0,0-3.484-3.484h-.686v3.484Z" transform="translate(-24.236 -755.004)" fill="#f78c00"></path><path id="Trazado_10343" data-name="Trazado 10343" d="M37.747,782.29a3.487,3.487,0,0,0-.208,1.188H45.88a3.468,3.468,0,0,0-.208-1.188Z" transform="translate(-22.872 -755.757)" fill="#b5b5b5"></path><path id="Trazado_10344" data-name="Trazado 10344" d="M47.037,782.29H43.074v1.188h4.17A3.465,3.465,0,0,0,47.037,782.29Z" transform="translate(-24.236 -755.757)" fill="#7f7f7f"></path><path id="Trazado_10345" data-name="Trazado 10345" d="M42.746,764.753l.333.674a.312.312,0,0,0,.235.171l.744.108a.314.314,0,0,1,.174.534l-.539.524a.314.314,0,0,0-.09.276l.127.741a.313.313,0,0,1-.454.33l-.665-.35a.311.311,0,0,0-.291,0l-.665.35a.313.313,0,0,1-.454-.33l.127-.741a.312.312,0,0,0-.09-.276l-.538-.524a.313.313,0,0,1,.173-.534l.744-.108a.312.312,0,0,0,.235-.171l.333-.674A.313.313,0,0,1,42.746,764.753Z" transform="translate(-23.628 -751.391)" fill="#ffedb5"></path><path id="Trazado_10346" data-name="Trazado 10346" d="M44.84,766.241a.313.313,0,0,0-.174-.534l-.744-.109a.313.313,0,0,1-.235-.171l-.333-.674a.309.309,0,0,0-.28-.174v3.148a.309.309,0,0,1,.145.036l.665.35a.313.313,0,0,0,.454-.33l-.127-.741a.314.314,0,0,1,.09-.277Z" transform="translate(-24.236 -751.391)" fill="#fee187"></path></g></g><g id="Grupo_23889" data-name="Grupo 23889" transform="translate(850.772 843.051)"><g id="Grupo_23888" data-name="Grupo 23888" transform="translate(0 -0.001)"><path id="Trazado_32760" data-name="Trazado 32760" d="M2740.3-626.05l-8.995,5.7-1.583-1.322c-.759-.631-18.556-16.051-18.556-66.745a112.806,112.806,0,0,1,5.33-34.387c-6.906-7.273-8.682-13.819-10.9-21.988-.591-2.179-1.2-4.432-1.96-6.891a132.8,132.8,0,0,0-5.063-13.694l-1.292-2.873,2.995-.978a51.963,51.963,0,0,1,16.095-2.655,47.2,47.2,0,0,1,32.023,12.636,103.948,103.948,0,0,1,34.635-5.774,103.952,103.952,0,0,1,34.636,5.774,47.2,47.2,0,0,1,32.022-12.636,51.958,51.958,0,0,1,16.095,2.655l3,.977-1.292,2.874a133.075,133.075,0,0,0-5.063,13.694c-.758,2.46-1.369,4.713-1.96,6.891-2.217,8.169-3.994,14.715-10.9,21.988a112.831,112.831,0,0,1,5.33,34.387c0,50.694-17.8,66.114-18.556,66.745l-1.583,1.322-9-5.7L2817.8-620l-1.739-1.981c-.24-.273-5.119-5.873-7.272-11.752a110.708,110.708,0,0,1-25.757,3.052,110.686,110.686,0,0,1-25.757-3.053c-2.154,5.879-7.032,11.479-7.271,11.753l-1.74,1.981Z" transform="translate(-2693.411 774.714)" fill="url(#linear-gradient-2)"></path><path id="Trazado_32761" data-name="Trazado 32761" d="M2796.619-680.718c6.2,0,18.328-7.03,23.106-17.679,4.763-10.618-5.556-13.947-9.673-14.7a103.57,103.57,0,0,0-13.433-.98,103.575,103.575,0,0,0-13.433.98c-4.116.752-14.436,4.081-9.673,14.7C2778.291-687.748,2790.421-680.718,2796.619-680.718Z" transform="translate(-2706.996 764.241)" fill="#ffcbd7"></path><path id="Trazado_32762" data-name="Trazado 32762" d="M2796.117-726.978A105.072,105.072,0,0,0,2782.149-728a105.012,105.012,0,0,0-13.915,1.026c-2.693.492-9.258,2.205-12.031,7.479-1.692,3.215-1.6,6.971.286,11.162,5.378,11.989,18.586,19.35,25.687,19.35s20.309-7.361,25.688-19.35c1.881-4.192,1.977-7.948.285-11.162C2805.375-724.773,2798.811-726.486,2796.117-726.978Zm6.583,16.324c-4.454,9.93-15.82,16.008-20.524,16.008s-16.069-6.078-20.524-16.008c-1.132-2.524-1.281-4.614-.44-6.212,1.321-2.51,5.019-3.994,8.04-4.545a101.537,101.537,0,0,1,12.9-.934,101.577,101.577,0,0,1,12.952.934c3.021.552,6.719,2.036,8.04,4.545C2803.981-715.268,2803.833-713.178,2802.7-710.654Zm63.107-61.891a54.781,54.781,0,0,0-16.972-2.795,50.223,50.223,0,0,0-32.676,12.25,107.112,107.112,0,0,0-33.982-5.387,107.114,107.114,0,0,0-33.982,5.387,50.217,50.217,0,0,0-32.676-12.25,54.775,54.775,0,0,0-16.972,2.795l-5.993,1.955,2.587,5.748a130.145,130.145,0,0,1,4.939,13.366c.744,2.414,1.349,4.644,1.933,6.8,2.115,7.791,3.971,14.629,10.446,21.957a115.686,115.686,0,0,0-4.975,33.675c0,21.51,3.113,39.446,9.253,53.31,4.782,10.8,9.767,15.148,10.32,15.609l3.168,2.641,3.484-2.208,5.593-3.541,4.3,3.266,4.2,3.192,3.48-3.962a48.688,48.688,0,0,0,6.833-10.333,113.367,113.367,0,0,0,24.069,2.6,113.438,113.438,0,0,0,24.069-2.594,48.676,48.676,0,0,0,6.834,10.332l3.48,3.962,4.2-3.192,4.3-3.266,5.591,3.541,3.484,2.208,3.168-2.641c.552-.461,5.538-4.813,10.319-15.609,6.14-13.864,9.254-31.8,9.254-53.31a115.715,115.715,0,0,0-4.974-33.676c6.475-7.328,8.33-14.167,10.446-21.957.584-2.156,1.189-4.385,1.933-6.8a130.292,130.292,0,0,1,4.939-13.367l2.58-5.747Zm-9.645,18.57c-.786,2.551-1.41,4.851-2.014,7.075-1.877,6.921-3.26,11.975-7.568,17.318a93.6,93.6,0,0,0-9.966-19.323c1.3-2.041,4.772-6.28,12.745-10.032l-2.41-5.121c-13.259,6.242-16.2,14.1-16.323,14.434l-.522,1.466.952,1.228c.174.224,17.324,22.715,17.324,57.887,0,39.417-11.2,56.23-15.157,60.938l-8.612-5.456-6.91,5.254a27.388,27.388,0,0,1-4.53-7.46c2.388-.7,4.763-1.452,7.113-2.312l-1.947-5.313a104.8,104.8,0,0,1-36.162,6.43,104.8,104.8,0,0,1-36.161-6.43l-1.947,5.313c2.349.861,4.725,1.615,7.112,2.312a27.367,27.367,0,0,1-4.53,7.46l-6.91-5.254-8.631,5.468c-3.973-4.644-15.138-21.232-15.138-60.95,0-35.172,17.151-57.664,17.322-57.885l.959-1.228-.526-1.467c-.119-.332-3.063-8.192-16.323-14.434l-2.411,5.121c7.987,3.759,11.456,8.007,12.747,10.028a93.752,93.752,0,0,0-9.967,19.326c-4.309-5.343-5.69-10.4-7.568-17.318-.6-2.224-1.228-4.523-2.014-7.075-1.452-4.719-3-8.782-4.052-11.37,24.863-6.5,39.9,9.9,40.546,10.623l1.287,1.454,1.821-.679a97.966,97.966,0,0,1,34.383-6.041,97.967,97.967,0,0,1,34.384,6.041l1.814.671,1.289-1.441c.651-.728,15.687-17.131,40.549-10.628C2859.164-762.757,2857.615-758.693,2856.162-753.974Zm-76.991,39.307v2.529a4.354,4.354,0,0,1-4.342,4.341,4.354,4.354,0,0,1-4.341-4.341v-2.529a4.354,4.354,0,0,1,4.341-4.341A4.354,4.354,0,0,1,2779.171-714.668Zm-24.812-13.869a6.227,6.227,0,0,1-6.227,6.227,6.228,6.228,0,0,1-6.228-6.227,6.228,6.228,0,0,1,6.228-6.227A6.227,6.227,0,0,1,2754.358-728.537Zm39.506,13.869v2.529a4.354,4.354,0,0,1-4.341,4.341,4.353,4.353,0,0,1-4.34-4.341v-2.529a4.353,4.353,0,0,1,4.34-4.341A4.354,4.354,0,0,1,2793.865-714.668Zm28.584-13.869a6.228,6.228,0,0,1-6.228,6.227,6.227,6.227,0,0,1-6.226-6.227,6.227,6.227,0,0,1,6.226-6.227A6.228,6.228,0,0,1,2822.449-728.537Z" transform="translate(-2692.553 775.339)" fill="#212121"></path><path id="Trazado_32763" data-name="Trazado 32763" d="M2753.881-708.6h-.489a14.329,14.329,0,0,1-14.287-14.287v-3.081c0-10.874,6.429-14.415,14.287-14.415h5.292c8.346,0,14.248,3.288,14.248,12.733h0A19.106,19.106,0,0,1,2753.881-708.6Zm73.56,0h.489a14.33,14.33,0,0,0,14.287-14.287v-3.081c0-10.874-6.43-14.415-14.287-14.415h-5.292c-8.346,0-14.247,3.288-14.247,12.733h0A19.106,19.106,0,0,0,2827.441-708.6Z" transform="translate(-2700.986 769.007)" fill="#004b40"></path><path id="Trazado_32766" data-name="Trazado 32766" d="M2753.881-708.6h-.489a14.329,14.329,0,0,1-14.287-14.287v-3.081c0-10.874,6.429-14.415,14.287-14.415h5.292c8.346,0,14.248,3.288,14.248,12.733h0A19.106,19.106,0,0,1,2753.881-708.6Zm73.56,0h.489a14.33,14.33,0,0,0,14.287-14.287v-3.081c0-10.874-6.43-14.415-14.287-14.415h-5.292c-8.346,0-14.247,3.288-14.247,12.733h0A19.106,19.106,0,0,0,2827.441-708.6Z" transform="translate(-2700.986 769.007)" fill="#004b40"></path><path id="Trazado_32767" data-name="Trazado 32767" d="M2767.11-744.684l2.434,7.49h7.876l-6.372,4.629,2.434,7.49-6.371-4.629-6.371,4.629,2.434-7.49-6.372-4.629h7.876Z" transform="translate(-2704.191 769.786)" fill="#fded00"></path><path id="Trazado_32768" data-name="Trazado 32768" d="M2856.171-742.089l1.906,5.867h6.169l-4.991,3.626,1.906,5.867-4.991-3.626-4.991,3.626,1.906-5.867-4.991-3.626h6.169Z" transform="translate(-2720.729 769.316)" fill="#fded00"></path></g><ellipse id="Elipse_4265" data-name="Elipse 4265" cx="85.909" cy="5.553" rx="85.909" ry="5.553" transform="translate(0 153.01)" opacity="0.18"></ellipse></g><g id="Grupo_23926" data-name="Grupo 23926" transform="translate(63.764 -13.684)"><g transform="matrix(1, 0, 0, 1, 785.24, 690.68)" filter="url(#Elipse_4280)"><circle id="Elipse_4280-2" data-name="Elipse 4280" cx="22.676" cy="22.676" r="22.676" transform="translate(68.06 53.85)" fill="#fff"></circle></g><g id="Grupo_6160" data-name="Grupo 6160" transform="translate(852.01 742.182)"><path id="Trazado_3896" data-name="Trazado 3896" d="M33.641,522.111a2.765,2.765,0,0,1-3-2.718,4.06,4.06,0,0,1,.849-2.351L33.33,514.3h2.18l-1.869,2.6-.032.054a1.7,1.7,0,0,1,.537-.086,2.443,2.443,0,0,1,2.491,2.481A2.767,2.767,0,0,1,33.641,522.111Zm.011-3.909a1.151,1.151,0,0,0-1.2,1.2,1.164,1.164,0,0,0,1.192,1.2,1.2,1.2,0,0,0,.011-2.405Z" transform="translate(-18.049 -494.186)" fill="#004b40"></path><path id="Trazado_3897" data-name="Trazado 3897" d="M40.842,522.1c-2.158,0-2.985-1.868-2.985-4.028s.827-3.984,2.985-3.984,2.965,1.837,2.965,3.984S42.99,522.1,40.842,522.1Zm0-6.486c-.955,0-1.138,1.5-1.138,2.458,0,.979.183,2.482,1.138,2.482s1.118-1.5,1.118-2.482C41.96,517.117,41.787,515.614,40.842,515.614Z" transform="translate(-18.429 -494.175)" fill="#004b40"></path><path id="Trazado_3898" data-name="Trazado 3898" d="M46.881,518.216a2.03,2.03,0,1,1,2.04-2.031A2.037,2.037,0,0,1,46.881,518.216Zm0-2.868a.838.838,0,0,0-.837.837.837.837,0,0,0,1.675,0A.838.838,0,0,0,46.881,515.348Zm.827,6.905-.956-.473,4.436-7.839,1,.483Zm4.328-.237a2.029,2.029,0,1,1,2.04-2.029A2.03,2.03,0,0,1,52.036,522.016Zm0-2.866a.832.832,0,1,0,.837.837A.839.839,0,0,0,52.036,519.15Z" transform="translate(-18.798 -494.167)" fill="#004b40"></path><path id="Trazado_3956" data-name="Trazado 3956" d="M41.717,493.1a24.369,24.369,0,1,0,24.369,24.369A24.369,24.369,0,0,0,41.717,493.1Zm0,41.819a17.45,17.45,0,1,1,17.45-17.45A17.45,17.45,0,0,1,41.717,534.917Z" transform="translate(-17.348 -493.067)" fill="#b9baba"></path><path id="Trazado_3957" data-name="Trazado 3957" d="M42.41,493.1l-.07,0v6.921c.024,0,.046,0,.07,0A17.45,17.45,0,1,1,34,532.752l-3.5,5.969A24.368,24.368,0,1,0,42.41,493.1Z" transform="translate(-18.041 -493.067)" fill="#1eea00"></path><rect id="Rect&#xE1;ngulo_2639" data-name="Rect&#xE1;ngulo 2639" width="3.079" height="8.99" transform="translate(15.637 37.072) rotate(29.268)" fill="#fff"></rect><rect id="Rect&#xE1;ngulo_2640" data-name="Rect&#xE1;ngulo 2640" width="3.079" height="7.061" transform="matrix(1, 0.021, -0.021, 1, 22.903, 0)" fill="#fff"></rect></g></g><g id="Grupo_23927" data-name="Grupo 23927" transform="translate(-58.931 -768.865)"><ellipse id="Elipse_316" data-name="Elipse 316" cx="15.56" cy="15.56" rx="15.56" ry="15.56" transform="translate(928 1602.447) rotate(-80.783)" fill="#004b40"></ellipse><path id="Trazado_32736" data-name="Trazado 32736" d="M5.7-6.917,3.554-9.873,1.437-6.917H.26L2.951-10.59.424-14.078H1.59L3.6-11.326,5.58-14.078H6.7L4.168-10.62l2.711,3.7Zm6.834-.89v.89H7.391v-.7l2.916-2.813a3.483,3.483,0,0,0,.716-.885,1.686,1.686,0,0,0,.184-.752,1.053,1.053,0,0,0-.394-.875,1.785,1.785,0,0,0-1.13-.312,2.245,2.245,0,0,0-1.831.778l-.7-.6a2.792,2.792,0,0,1,1.1-.8,3.879,3.879,0,0,1,1.519-.286,2.767,2.767,0,0,1,1.79.537,1.775,1.775,0,0,1,.665,1.458,2.475,2.475,0,0,1-.246,1.084,4.335,4.335,0,0,1-.931,1.166L8.864-7.807Z" transform="translate(939.412 1605.07)" fill="#fff"></path><path id="Trazado_32737" data-name="Trazado 32737" d="M5.382-15.4a3.649,3.649,0,0,1,2.408.731,2.481,2.481,0,0,1,.878,2.014,2.481,2.481,0,0,1-.878,2.014,3.649,3.649,0,0,1-2.408.731H3.435v2.386H2.31V-15.4Zm-.034,4.513a2.54,2.54,0,0,0,1.632-.456,1.589,1.589,0,0,0,.563-1.311,1.589,1.589,0,0,0-.563-1.311,2.54,2.54,0,0,0-1.632-.456H3.435v3.534Zm8.339,3.016a1.612,1.612,0,0,1-.585.309,2.444,2.444,0,0,1-.72.107,1.913,1.913,0,0,1-1.4-.484,1.848,1.848,0,0,1-.5-1.384V-12.6H9.479v-.889h1.013v-1.305h1.08v1.305h1.711v.889H11.572v3.23a1.048,1.048,0,0,0,.242.743.9.9,0,0,0,.692.259,1.3,1.3,0,0,0,.844-.281Zm3.016.416a5,5,0,0,1-1.407-.2,3.089,3.089,0,0,1-1.058-.5l.45-.855a3.231,3.231,0,0,0,.957.45,3.936,3.936,0,0,0,1.137.169q1.418,0,1.418-.81a.525.525,0,0,0-.191-.428,1.211,1.211,0,0,0-.478-.231q-.287-.073-.816-.163a8,8,0,0,1-1.176-.259,1.812,1.812,0,0,1-.782-.5,1.378,1.378,0,0,1-.326-.979,1.529,1.529,0,0,1,.675-1.3,3.024,3.024,0,0,1,1.812-.49,4.991,4.991,0,0,1,1.193.146,3.208,3.208,0,0,1,.979.394l-.461.855a3.1,3.1,0,0,0-1.722-.473,1.99,1.99,0,0,0-1.047.225.679.679,0,0,0-.36.6.569.569,0,0,0,.2.461,1.281,1.281,0,0,0,.5.248q.3.079.838.18a9.1,9.1,0,0,1,1.165.264,1.739,1.739,0,0,1,.76.478,1.332,1.332,0,0,1,.315.945,1.491,1.491,0,0,1-.692,1.289A3.269,3.269,0,0,1,16.7-7.455Z" transform="translate(935.993 1596.619)" fill="#fff"></path><path id="Elipse_317" data-name="Elipse 317" d="M13.271,0a13.275,13.275,0,0,1,5.166,25.5A13.275,13.275,0,0,1,8.105,1.043,13.189,13.189,0,0,1,13.271,0Zm0,25.52A12.248,12.248,0,1,0,1.023,13.271,12.262,12.262,0,0,0,13.271,25.52Z" transform="translate(930.626 1600.554) rotate(-80.783)" fill="#1eea00"></path></g></g></svg>